<svg width="390" height="112" viewBox="0 0 390 112" fill="none" xmlns="http://www.w3.org/2000/svg">
<g clip-path="url(#clip0_89_893)">
<path d="M87.4571 113.461L73.5252 99.1628L87.4571 84.8649V64.6235H107.18L121.072 50.3256L135.004 64.6235H154.727V84.8649L168.659 99.1628L154.727 113.461V133.702H135.004L121.072 148L107.14 133.702H87.4166V113.461H87.4571ZM108.152 131.167L121.072 144.426L133.991 131.167H152.256V112.422L165.216 99.1628L152.297 85.904V67.1588H134.032L121.112 53.9L108.152 67.1588H89.8871V85.904L76.9677 99.1628L89.8871 112.422V131.167H108.152Z" fill="#C49A6C" fill-opacity="0.1"/>
<path d="M91.1831 99.1628L99.931 90.185V77.4666H112.324L121.072 68.4889L129.82 77.4666H142.212V90.185L151.001 99.1628L142.253 108.141V120.859H129.86L121.112 129.837L112.364 120.859H99.9714V108.141L91.1831 99.1628ZM102.361 118.365H113.336L121.072 126.304L128.807 118.365H139.783V107.101L147.518 99.1628L139.783 91.2241V79.9604H128.807L121.072 72.0218L113.336 79.9604H102.361V91.2241L94.6255 99.1628L102.361 107.101V118.365Z" fill="#C49A6C" fill-opacity="0.1"/>
<path d="M18.9318 43.1351L5 28.8372L18.9318 14.5393V-5.70213H38.6551L52.587 -20L66.5188 -5.70213H86.2421V14.5393L100.133 28.8372L86.2016 43.1351V63.3765H66.4783L52.5465 77.6744L38.6146 63.3765H18.8913V43.1351H18.9318ZM39.6271 60.8412L52.587 74.1415L65.5063 60.8827H83.7716V42.096L96.691 28.8372L83.7716 15.5784V-3.16675H65.5063L52.587 -16.4255L39.6271 -3.16675H21.3618V15.5784L8.44247 28.8372L21.3618 42.096V60.8412H39.6271Z" fill="#C49A6C" fill-opacity="0.1"/>
<path d="M22.6578 28.8372L31.4057 19.8595V7.14102H43.7986L52.587 -1.83672L61.3349 7.14102H73.7277V19.8595L82.4756 28.8372L73.7277 37.8149V50.5334H61.3349L52.587 59.5527L43.7986 50.5334H31.4057V37.8149L22.6578 28.8372ZM33.8762 48.0396H44.8516L52.587 55.9782L60.3224 48.0396H71.2978V36.7759L79.0332 28.8372L71.2978 20.8986V9.63483H60.3224L52.587 1.69619L44.8516 9.63483H33.8762V20.8986L26.1408 28.8372L33.8762 36.7759V48.0396Z" fill="#C49A6C" fill-opacity="0.1"/>
<path d="M57.7709 111.881H65.5063V103.943L70.9738 98.3315L65.5063 92.7204V84.7818H57.7709L52.3035 79.1707L46.836 84.7818H39.1006V92.7204L33.6332 98.3315L39.1006 103.943V111.881H46.836L52.3035 117.492L57.7709 111.881ZM57.1229 110.177L52.3035 115.123L47.484 110.177H40.6801V103.194L35.8606 98.2899L40.6801 93.3439V86.3612H47.484L52.3035 81.4151L57.1229 86.3612H63.9268V93.3439L68.7463 98.2484L63.9268 103.194V110.177H57.1229Z" fill="#C49A6C" fill-opacity="0.1"/>
<path d="M55.827 106.977H60.7679V101.906L64.2508 98.3315L60.7679 94.757V89.6863H55.827L52.344 86.1118L48.861 89.6863H43.9201V94.757L40.4371 98.3315L43.9201 101.906V106.977H48.861L52.344 110.551L55.827 106.977ZM55.1385 105.273L52.3035 108.182L49.4685 105.273H45.459V101.158L42.6241 98.2484L45.459 95.3389V91.2241H49.4685L52.3035 88.3147L55.1385 91.2241H59.1479V95.3389L61.9829 98.2484L59.1479 101.158V105.273H55.1385Z" fill="#C49A6C" fill-opacity="0.1"/>
<path d="M126.58 42.4285H134.315V34.4899L139.823 28.8372L134.356 23.2261V15.2875H126.62L121.153 9.6764L115.685 15.2875H107.95V23.2261L102.401 28.8372L107.909 34.4899V42.4285H115.645L121.112 48.0396L126.58 42.4285ZM125.932 40.7244L121.112 45.6705L116.293 40.766H109.489V33.7833L104.669 28.8788L109.529 23.9327V16.95H116.333L121.112 12.004L125.932 16.95H132.736V23.9327L137.515 28.8372L132.695 33.7833V40.766L125.932 40.7244Z" fill="#C49A6C" fill-opacity="0.1"/>
<path d="M124.595 37.524H129.536V32.4117L133.019 28.8372L129.536 25.2627V20.192H124.595L121.112 16.6175L117.589 20.192H112.648V25.2627L109.165 28.8372L112.648 32.4117V37.4824H117.589L121.072 41.0569L124.595 37.524ZM123.907 35.8199L121.072 38.7293L118.237 35.8199H114.227V31.7051L111.392 28.7956L114.227 25.8862V21.7714H118.237L121.072 18.8619L123.907 21.7714L127.916 21.8545V25.9278L130.751 28.8372L127.916 31.7467V35.8615L123.907 35.8199Z" fill="#C49A6C" fill-opacity="0.1"/>
<path d="M73.8897 81.8723L76.6842 83.0777L77.8587 80.2098L80.6532 79.0045L79.4787 76.1366L80.6532 73.2687L77.8587 72.0633L76.6842 69.1954L73.8897 70.4008L71.0953 69.1954L69.9208 72.0633L67.1263 73.2687L68.3008 76.1366L67.1263 79.0045L69.9208 80.2098L71.0953 83.0777L73.8897 81.8723ZM71.6623 81.6645L70.7308 79.3785L68.5033 78.4226L69.4348 76.1366L68.5033 73.8506L70.7308 72.8946L71.6623 70.6086L73.8897 71.5646L76.1172 70.6086L77.0487 72.8946L79.2762 73.8506L78.3447 76.1366L79.2762 78.4226L77.0487 79.3785L76.1172 81.6645L73.8897 80.7086L71.6623 81.6645Z" fill="#C49A6C" fill-opacity="0.1"/>
<path d="M73.8897 79.8773L75.7122 80.667L76.4817 78.7966L78.3042 78.0069L77.5347 76.1366L78.3042 74.2662L76.4817 73.4765L75.7122 71.6061L73.8897 72.3958L72.0673 71.6061L71.2978 73.4765L69.4753 74.2662L70.2448 76.1366L69.4753 78.0069L71.2978 78.7966L72.0673 80.667L73.8897 79.8773ZM72.6342 79.2954L72.1077 78.0069L70.8523 77.4666L71.3788 76.1781L70.8523 74.8897L72.1077 74.3493L72.6342 73.0609L73.8897 73.6012L75.1452 73.0609L75.6717 74.3493L76.9272 74.8897L76.4007 76.1781L76.9272 77.4666L75.6717 78.0069L75.1452 79.2954L73.8897 78.7551L72.6342 79.2954Z" fill="#C49A6C" fill-opacity="0.1"/>
<path d="M100.133 56.7264L103.252 58.0564L104.548 54.856L107.666 53.526L106.37 50.3256L107.666 47.1252L104.548 45.7952L103.252 42.5948L100.133 43.9248L97.015 42.5948L95.719 45.7952L92.6005 47.1252L93.8965 50.3256L92.6005 53.526L95.719 54.856L97.015 58.0564L100.133 56.7264ZM97.6225 56.6017L96.5695 54.0247L94.0585 52.9441L95.1115 50.3671L94.0585 47.7902L96.5695 46.7095L97.6225 44.1326L100.133 45.1301L102.644 44.0495L103.697 46.6264L106.208 47.7071L105.155 50.284L106.208 52.861L103.697 53.9416L102.644 56.5186L100.133 55.4379L97.6225 56.6017Z" fill="#C49A6C" fill-opacity="0.1"/>
<path d="M100.133 54.4819L102.158 55.3548L103.009 53.2766L105.034 52.4038L104.183 50.3256L105.034 48.2474L103.009 47.3746L102.158 45.2964L100.133 46.1692L98.1085 45.2964L97.258 47.3746L95.233 48.2474L96.0835 50.3256L95.233 52.4038L97.258 53.2766L98.1085 55.3548L100.133 54.4819ZM98.716 53.9L98.1085 52.4038L96.6505 51.7803L97.258 50.284L96.6505 48.7877L98.1085 48.1643L98.716 46.668L100.174 47.2914L101.591 46.7511L102.199 48.2474L103.616 48.8293L103.009 50.3256L103.616 51.8219L102.158 52.4453L101.551 53.9416L100.093 53.3182L98.716 53.9Z" fill="#C49A6C" fill-opacity="0.1"/>
<path d="M145.007 56.7264L148.125 58.0564L149.421 54.856L152.54 53.526L151.244 50.3256L152.54 47.1252L149.421 45.7952L148.125 42.5948L145.007 43.9248L141.888 42.5948L140.593 45.7952L137.474 47.1252L138.77 50.3256L137.474 53.526L140.593 54.856L141.888 58.0564L145.007 56.7264ZM142.496 56.6017L141.443 54.0247L138.932 52.9441L139.985 50.3671L138.932 47.7902L141.443 46.7095L142.496 44.1326L145.007 45.2133L147.518 44.1326L148.571 46.7095L151.082 47.7902L150.029 50.3671L151.082 52.9441L148.571 54.0247L147.518 56.6017L145.007 55.521L142.496 56.6017Z" fill="#C49A6C" fill-opacity="0.1"/>
<path d="M350.621 26.4144L351.642 19.6285L358.46 20.4122L364.008 16.1635L368.111 21.5218L374.92 22.2945L373.899 29.0805L378.002 34.4387L372.454 38.6874L371.434 45.4733L364.616 44.6896L359.068 48.9383L354.965 43.5801L348.147 42.7963L349.168 36.0103L345.065 30.6521L350.613 26.4034L350.621 26.4144ZM350.074 35.7532L349.127 42.046L355.449 42.7728L359.249 47.7349L364.387 43.8003L370.717 44.5381L371.664 38.2453L376.802 34.3107L373.002 29.3486L373.949 23.0558L367.618 22.318L363.818 17.3559L358.68 21.2905L352.358 20.5637L351.412 26.8565L346.274 30.7911L350.074 35.7532Z" fill="#C49A6C" fill-opacity="0.1"/>
<path d="M355.316 24.4256L359.596 24.9177L363.083 22.2481L365.661 25.6148L369.941 26.107L369.3 30.3679L371.879 33.7347L368.393 36.4043L367.76 40.6763L363.479 40.1841L359.993 42.8537L357.415 39.487L353.134 38.9949L353.775 34.7339L351.197 31.3671L354.683 28.6975L355.316 24.4256ZM352.378 31.4928L354.661 34.4745L354.094 38.2423L357.88 38.6775L360.163 41.6591L363.25 39.2949L367.035 39.73L367.602 35.9622L370.69 33.598L368.406 30.6163L368.973 26.8485L365.188 26.4134L362.904 23.4317L359.817 25.7959L356.032 25.3608L355.465 29.1286L352.378 31.4928Z" fill="#C49A6C" fill-opacity="0.1"/>
<path d="M355.642 -6.9631L356.663 -13.7491L363.48 -12.9653L369.028 -17.214L373.131 -11.8558L379.949 -11.0721L378.928 -4.28607L383.031 1.07215L377.483 5.32082L376.454 12.0958L369.637 11.3121L364.088 15.5607L359.985 10.2025L353.168 9.41877L354.189 2.63279L350.085 -2.72543L355.634 -6.97411L355.642 -6.9631ZM355.094 2.37568L354.145 8.68821L360.467 9.415L364.266 14.3771L369.416 10.4338L375.738 11.1606L376.684 4.86777L381.822 0.933168L378.023 -4.02896L378.969 -10.3218L372.639 -11.0596L368.839 -16.0217L363.701 -12.0871L357.379 -12.8139L356.432 -6.52106L351.294 -2.58645L355.094 2.37568Z" fill="#C49A6C" fill-opacity="0.1"/>
<path d="M360.336 -8.95199L364.617 -8.45987L368.103 -11.1295L370.681 -7.7627L374.97 -7.25959L374.329 -2.99862L376.908 0.368145L373.421 3.03774L372.781 7.29871L368.5 6.80659L365.014 9.47619L362.436 6.10942L358.143 5.62603L358.787 1.34534L356.209 -2.02142L359.695 -4.69102L360.336 -8.95199ZM357.407 -1.87373L359.69 1.10795L359.123 4.87575L362.908 5.31091L365.192 8.29259L368.279 5.92833L372.064 6.3635L372.631 2.5957L375.719 0.231444L373.435 -2.75023L374.002 -6.51803L370.217 -6.95319L367.933 -9.93487L364.846 -7.57062L361.061 -8.00578L360.494 -4.23798L357.407 -1.87373Z" fill="#C49A6C" fill-opacity="0.1"/>
<path d="M344.879 18.0181L346.488 20.1196L348.664 18.4532L351.339 18.7608L351.74 16.0977L353.916 14.4314L352.307 12.3299L352.707 9.66682L350.032 9.35925L348.422 7.25777L346.246 8.92409L343.571 8.61652L343.17 11.2796L340.994 12.9459L342.604 15.0474L342.203 17.7105L344.879 18.0181ZM345.211 17.4844L342.852 17.2132L343.206 14.8658L341.79 13.0173L343.704 11.5517L344.046 9.21292L346.404 9.48405L348.318 8.01839L349.734 9.86681L352.092 10.1379L351.739 12.4854L353.154 14.3338L351.24 15.7995L350.899 18.1382L348.54 17.8671L346.626 19.3328L345.211 17.4844Z" fill="#C49A6C" fill-opacity="0.1"/>
<path d="M345.818 16.4605L346.846 17.8028L348.236 16.7385L349.941 16.9344L350.196 15.2379L351.586 14.1736L350.558 12.8313L350.813 11.1348L349.109 10.9388L348.081 9.59652L346.691 10.6609L344.986 10.4649L344.731 12.1614L343.341 13.2258L344.369 14.5681L344.114 16.2646L345.818 16.4605ZM346.142 15.9158L344.755 15.7563L344.963 14.3754L344.129 13.2862L345.257 12.4225L345.464 11.0416L346.851 11.2011L347.979 10.3374L348.813 11.4267L350.201 11.5861L349.993 12.967L350.827 14.0563L349.699 14.92L349.492 16.3008L348.104 16.1413L346.976 17.005L346.142 15.9158Z" fill="#C49A6C" fill-opacity="0.1"/>
<path d="M378.23 22.1332L379.84 24.2347L382.016 22.5684L384.711 22.8782L385.112 20.2151L387.288 18.5488L385.678 16.4474L386.079 13.7842L383.403 13.4767L381.794 11.3752L379.618 13.0415L376.926 12.7119L376.522 15.3948L374.346 17.0611L375.956 19.1626L375.555 21.8257L378.23 22.1332ZM378.563 21.5995L376.204 21.3284L376.546 18.9896L375.131 17.1412L377.045 15.6756L377.386 13.3368L379.753 13.6189L381.667 12.1533L383.082 14.0017L385.432 14.2618L385.079 16.6093L386.495 18.4577L384.581 19.9234L384.231 22.2511L381.872 21.98L379.958 23.4456L378.563 21.5995Z" fill="#C49A6C" fill-opacity="0.1"/>
<path d="M379.162 20.5647L380.19 21.907L381.591 20.8339L383.295 21.0298L383.551 19.3333L384.941 18.269L383.913 16.9267L384.168 15.2302L382.455 15.0232L381.427 13.6809L380.037 14.7453L378.333 14.5494L378.078 16.2458L376.688 17.3102L377.716 18.6525L377.461 20.349L379.162 20.5647ZM379.486 20.0199L378.099 19.8604L378.306 18.4796L377.472 17.3903L378.6 16.5266L378.808 15.1458L380.195 15.3053L381.323 14.4416L382.157 15.5308L383.544 15.6903L383.336 17.0712L384.148 18.1779L383.031 19.0328L382.824 20.4137L381.436 20.2542L380.309 21.1179L379.486 20.0199Z" fill="#C49A6C" fill-opacity="0.1"/>
<path d="M356.457 16.0982L356.708 17.1104L357.739 16.8275L358.65 17.3337L359.192 16.4126L360.223 16.1297L359.972 15.1176L360.513 14.1965L359.602 13.6904L359.351 12.6782L358.32 12.9611L357.409 12.4549L356.867 13.3759L355.836 13.6588L356.087 14.671L355.546 15.5921L356.457 16.0982ZM356.051 15.4495L356.484 14.7166L356.282 13.9108L357.103 13.684L357.536 12.9511L358.261 13.3556L359.081 13.1288L359.283 13.9346L360.008 14.3391L359.575 15.072L359.777 15.8778L358.956 16.1046L358.524 16.8375L357.798 16.433L356.978 16.6597L356.776 15.854L356.051 15.4495Z" fill="#C49A6C" fill-opacity="0.1"/>
<path d="M357.004 15.6795L357.167 16.3403L357.84 16.1568L358.435 16.4862L358.788 15.8845L359.461 15.701L359.298 15.0401L359.65 14.4385L359.055 14.1091L358.892 13.4482L358.219 13.6318L357.624 13.3024L357.271 13.9041L356.598 14.0876L356.761 14.7485L356.409 15.3501L357.004 15.6795ZM356.903 15.2163L357.146 14.8028L357.033 14.3483L357.496 14.2209L357.739 13.8074L358.149 14.035L358.611 13.9076L358.724 14.3621L359.134 14.5898L358.89 15.0033L359.003 15.4578L358.541 15.5852L358.297 15.9987L357.888 15.771L357.425 15.8984L357.312 15.4439L356.903 15.2163Z" fill="#C49A6C" fill-opacity="0.1"/>
<path d="M368.81 17.9497L369.094 19.0761L370.241 18.7564L371.254 19.3244L371.862 18.3006L373.008 17.9809L372.724 16.8545L373.332 15.8307L372.318 15.2627L372.034 14.1363L370.887 14.456L369.874 13.888L369.267 14.9118L368.12 15.2315L368.404 16.3579L367.796 17.3817L368.81 17.9497ZM368.321 17.2414L368.809 16.4144L368.582 15.5054L369.508 15.2506L369.995 14.4236L370.814 14.879L371.739 14.6241L371.988 15.5157L372.807 15.971L372.319 16.798L372.546 17.7069L371.62 17.9618L371.133 18.7887L370.314 18.3334L369.389 18.5883L369.163 17.6793L368.321 17.2414Z" fill="#C49A6C" fill-opacity="0.1"/>
<path d="M369.425 17.4786L369.607 18.2119L370.353 18.0068L371.014 18.3737L371.407 17.7064L372.153 17.5013L371.971 16.768L372.364 16.1007L371.703 15.7338L371.521 15.0004L370.775 15.2056L370.114 14.8387L369.721 15.5059L368.975 15.7111L369.157 16.4444L368.764 17.1117L369.425 17.4786ZM369.289 16.9714L369.573 16.4923L369.441 15.9653L369.977 15.8163L370.261 15.3372L370.735 15.6024L371.272 15.4534L371.404 15.9803L371.847 16.252L371.563 16.7311L371.699 17.2383L371.162 17.3874L370.878 17.8665L370.404 17.6013L369.868 17.7503L369.735 17.2233L369.289 16.9714Z" fill="#C49A6C" fill-opacity="0.1"/>
<path d="M378.145 30.1405L378.429 31.2669L379.576 30.9472L380.589 31.5152L381.197 30.4914L382.344 30.1717L382.06 29.0453L382.667 28.0215L381.654 27.4534L381.37 26.3271L380.223 26.6468L379.21 26.0787L378.602 27.1026L377.455 27.4223L377.739 28.5486L377.132 29.5725L378.145 30.1405ZM377.657 29.4322L378.144 28.6052L377.918 27.6962L378.843 27.4414L379.331 26.6144L380.149 27.0697L381.075 26.8149L381.301 27.7239L382.119 28.1792L381.632 29.0062L381.858 29.9152L380.933 30.17L380.445 30.997L379.627 30.5416L378.702 30.7965L378.475 29.8875L377.657 29.4322Z" fill="#C49A6C" fill-opacity="0.1"/>
</g>
<defs>
<clipPath id="clip0_89_893">
<rect width="390" height="112" fill="white"/>
</clipPath>
</defs>
</svg>
