<svg width="50" height="50" viewBox="0 0 50 50" fill="none" xmlns="http://www.w3.org/2000/svg">
<rect width="50" height="50" rx="8" fill="#FFF7EE"/>
<g filter="url(#filter0_d_84_310)">
<path d="M12 33.332V23.9628C12 23.5903 12.0861 23.2393 12.2584 22.9097C12.4306 22.5802 12.6717 22.3118 12.9816 22.1045L19.0145 17.8802C19.4231 17.5968 19.8705 17.4551 20.3569 17.4551C20.8433 17.4551 21.2909 17.5968 21.6997 17.8802L27.97 22.2599C28.2139 22.4283 28.3989 22.6385 28.525 22.8903C28.6512 23.1421 28.7142 23.4089 28.7142 23.6907V23.8972C28.345 24.0883 28.0017 24.3041 27.6844 24.5446C27.3671 24.7851 27.0675 25.0543 26.7857 25.3522V23.9433C26.7857 23.8786 26.7712 23.8178 26.7424 23.7611C26.7135 23.7045 26.6703 23.6559 26.6126 23.6154L20.5797 19.4348C20.5137 19.3862 20.4395 19.3619 20.3571 19.3619C20.2747 19.3619 20.2005 19.3862 20.1346 19.4348L14.1016 23.6154C14.0439 23.6559 14.0007 23.7045 13.9718 23.7611C13.943 23.8178 13.9285 23.8786 13.9285 23.9433V32.579H16.9698V27.7207C16.9698 27.3972 17.0811 27.126 17.3039 26.9072C17.5266 26.6884 17.8026 26.579 18.1319 26.579H22.5824C22.9116 26.579 23.1876 26.6884 23.4103 26.9072C23.6331 27.126 23.7445 27.3972 23.7445 27.7207V32.579H24.4591C24.5069 32.9158 24.5765 33.2401 24.668 33.5518C24.7595 33.8636 24.8728 34.1708 25.0079 34.4737H22.978C22.6487 34.4737 22.3727 34.3643 22.15 34.1454C21.9273 33.9266 21.8159 33.6554 21.8159 33.332V28.4737H18.8983V33.332C18.8983 33.6554 18.787 33.9266 18.5642 34.1454C18.3415 34.3643 18.0655 34.4737 17.7362 34.4737H13.1621C12.8328 34.4737 12.5568 34.3643 12.3341 34.1454C12.1114 33.9266 12 33.6554 12 33.332ZM39 15.2834V24.8056C38.7181 24.532 38.4185 24.287 38.1013 24.0709C37.7839 23.8547 37.4406 23.6591 37.0714 23.4842V15.2834C37.0714 15.17 37.0343 15.0769 36.9602 15.004C36.886 14.9312 36.7912 14.8947 36.6758 14.8947H25.5C25.3846 14.8947 25.2898 14.9312 25.2156 15.004C25.1414 15.0769 25.1043 15.17 25.1043 15.2834V17.1611L23.1758 15.7911V15.2445C23.1758 14.6306 23.4004 14.1031 23.8495 13.6619C24.2986 13.2206 24.8356 13 25.4604 13H36.6758C37.3149 13 37.8621 13.2236 38.3172 13.6708C38.7724 14.1179 39 14.6555 39 15.2834ZM32.658 19.8016H33.7706C33.9255 19.8016 34.0611 19.7445 34.1773 19.6303C34.2935 19.5162 34.3516 19.383 34.3516 19.2307V18.1377C34.3516 17.9854 34.2935 17.8522 34.1773 17.7381C34.0611 17.6239 33.9255 17.5668 33.7706 17.5668H32.658C32.503 17.5668 32.3675 17.6239 32.2512 17.7381C32.135 17.8522 32.0769 17.9854 32.0769 18.1377V19.2307C32.0769 19.383 32.135 19.5162 32.2512 19.6303C32.3675 19.7445 32.503 19.8016 32.658 19.8016ZM33.2143 37C31.6088 37 30.2431 36.447 29.1173 35.3409C27.9915 34.2348 27.4286 32.8931 27.4286 31.3158C27.4286 29.7385 27.9915 28.3968 29.1173 27.2907C30.2431 26.1846 31.6088 25.6316 33.2143 25.6316C34.8198 25.6316 36.1854 26.1846 37.3112 27.2907C38.4371 28.3968 39 29.7385 39 31.3158C39 32.8931 38.4371 34.2348 37.3112 35.3409C36.1854 36.447 34.8198 37 33.2143 37ZM32.6456 31.8745V34.4737C32.6456 34.6227 32.7025 34.7531 32.8162 34.8648C32.9299 34.9765 33.0626 35.0324 33.2143 35.0324C33.3659 35.0324 33.4986 34.9765 33.6124 34.8648C33.7261 34.7531 33.783 34.6227 33.783 34.4737V31.8745H36.4286C36.5802 31.8745 36.7129 31.8186 36.8267 31.7069C36.9404 31.5952 36.9972 31.4648 36.9972 31.3158C36.9972 31.1668 36.9404 31.0365 36.8267 30.9247C36.7129 30.813 36.5802 30.7571 36.4286 30.7571H33.783V28.1579C33.783 28.0089 33.7261 27.8786 33.6124 27.7668C33.4986 27.6551 33.3659 27.5992 33.2143 27.5992C33.0626 27.5992 32.9299 27.6551 32.8162 27.7668C32.7025 27.8786 32.6456 28.0089 32.6456 28.1579V30.7571H30C29.8483 30.7571 29.7156 30.813 29.6019 30.9247C29.4882 31.0365 29.4313 31.1668 29.4313 31.3158C29.4313 31.4648 29.4882 31.5952 29.6019 31.7069C29.7156 31.8186 29.8483 31.8745 30 31.8745H32.6456Z" fill="#6D4922"/>
</g>
<defs>
<filter id="filter0_d_84_310" x="11" y="12" width="29" height="26" filterUnits="userSpaceOnUse" color-interpolation-filters="sRGB">
<feFlood flood-opacity="0" result="BackgroundImageFix"/>
<feColorMatrix in="SourceAlpha" type="matrix" values="0 0 0 0 0 0 0 0 0 0 0 0 0 0 0 0 0 0 127 0" result="hardAlpha"/>
<feOffset/>
<feGaussianBlur stdDeviation="0.5"/>
<feComposite in2="hardAlpha" operator="out"/>
<feColorMatrix type="matrix" values="0 0 0 0 0.427451 0 0 0 0 0.286275 0 0 0 0 0.133333 0 0 0 0.5 0"/>
<feBlend mode="normal" in2="BackgroundImageFix" result="effect1_dropShadow_84_310"/>
<feBlend mode="normal" in="SourceGraphic" in2="effect1_dropShadow_84_310" result="shape"/>
</filter>
</defs>
</svg>
