<svg width="50" height="50" viewBox="0 0 50 50" fill="none" xmlns="http://www.w3.org/2000/svg">
<rect width="50" height="50" rx="8" fill="#FFF7EE"/>
<g filter="url(#filter0_d_84_294)">
<path fill-rule="evenodd" clip-rule="evenodd" d="M13.913 36.0001H28.7392C29.2174 36.0001 30.1739 36.0001 30.1739 35.0435V24.5217C30.1739 23.5652 29.2174 22.6086 28.2609 22.6086H13.913C12.9565 22.6086 12 23.5652 12 24.5217V35.0435C12 36.0001 12.9565 36.0001 13.4348 36.0001H13.913ZM28.2609 34.5653H13.913C13.4348 34.5653 13.4348 34.087 13.4348 33.6088L13.4348 28.8261C13.4348 28.3478 13.4348 28.3478 13.913 28.3478H28.2609C28.7392 28.3478 28.7392 28.3478 28.7392 28.8261V33.6088C28.7392 34.087 28.7392 34.5653 28.2609 34.5653ZM28.2609 26.913H13.913C13.4348 26.913 13.4348 26.913 13.4348 26.4348V25C13.4348 24.5217 13.913 24.0434 14.3913 24.0434H27.7826C28.2609 24.0434 28.7392 24.5217 28.7392 25V26.4348C28.7392 26.913 28.7392 26.913 28.2609 26.913Z" fill="#6D4922"/>
<path d="M15.3696 31.696C15.0935 31.696 14.8696 31.9199 14.8696 32.196V32.6308C14.8696 32.907 15.0935 33.1308 15.3696 33.1308H16.0114C16.1864 33.1308 16.3417 33.0189 16.3971 32.8529V32.8529C16.5206 32.4823 17.0448 32.4823 17.1683 32.8529V32.8529C17.2236 33.0189 17.3789 33.1308 17.5539 33.1308H20.1088C20.3849 33.1308 20.6088 32.907 20.6088 32.6308V32.196C20.6088 31.9199 20.3849 31.696 20.1088 31.696H15.3696Z" fill="#6D4922"/>
<path d="M31.9591 33.2034C32.3928 33.4051 33.26 33.8087 33.6635 32.9414L38.1025 23.4018C38.506 22.5346 38.0423 21.2638 37.1751 20.8602L24.1666 14.8071C23.2994 14.4035 22.0286 14.8672 21.625 15.7345L19.0923 21.1776L20.6765 21.174L21.11 20.2424C21.3117 19.8088 21.3117 19.8088 21.7454 20.0105L24.2535 21.1776L27.6544 21.1776L22.3507 18.7097C21.917 18.5079 21.917 18.5079 22.1188 18.0743L22.7241 16.7734C22.9259 16.3398 23.5613 16.1079 23.9949 16.3097L36.1362 21.9593C36.5698 22.1611 36.8016 22.7965 36.5998 23.2301L35.9945 24.531C35.7928 24.9646 35.7928 24.9646 35.3592 24.7628L31.5068 22.9702L31.5068 24.5527L34.7538 26.0637C35.1875 26.2654 35.1875 26.2654 34.9857 26.6991L32.968 31.0353C32.7662 31.4689 32.5644 31.9025 32.1308 31.7007L31.5068 31.4104L31.5068 32.9929L31.9591 33.2034Z" fill="#6D4922"/>
</g>
<defs>
<filter id="filter0_d_84_294" x="11" y="13.6599" width="28.2498" height="23.3401" filterUnits="userSpaceOnUse" color-interpolation-filters="sRGB">
<feFlood flood-opacity="0" result="BackgroundImageFix"/>
<feColorMatrix in="SourceAlpha" type="matrix" values="0 0 0 0 0 0 0 0 0 0 0 0 0 0 0 0 0 0 127 0" result="hardAlpha"/>
<feOffset/>
<feGaussianBlur stdDeviation="0.5"/>
<feComposite in2="hardAlpha" operator="out"/>
<feColorMatrix type="matrix" values="0 0 0 0 0.427451 0 0 0 0 0.286275 0 0 0 0 0.133333 0 0 0 0.5 0"/>
<feBlend mode="normal" in2="BackgroundImageFix" result="effect1_dropShadow_84_294"/>
<feBlend mode="normal" in="SourceGraphic" in2="effect1_dropShadow_84_294" result="shape"/>
</filter>
</defs>
</svg>
