<svg width="362" height="220" viewBox="0 0 362 220" fill="none" xmlns="http://www.w3.org/2000/svg">
<rect width="362" height="220" fill="url(#paint0_linear_73_1448)"/>
<mask id="mask0_73_1448" style="mask-type:alpha" maskUnits="userSpaceOnUse" x="0" y="0" width="362" height="220">
<rect width="362" height="220" fill="url(#paint1_linear_73_1448)"/>
</mask>
<g mask="url(#mask0_73_1448)">
<path d="M373.227 60.8062C386.461 58.5006 394.378 63.6686 388.594 71.165C376.693 86.5897 309.171 111.354 303.363 107.019C297.642 102.749 345.612 65.6155 373.227 60.8062Z" stroke="white" stroke-opacity="0.35" stroke-width="2" stroke-miterlimit="10"/>
<path d="M334.955 55.0617C305.247 61.4169 278.828 121.142 302.052 122.244C316.332 122.923 343.883 109.895 365.726 97.9654C386.231 86.7662 413.269 66.0354 415.024 50.6432C415.945 42.4764 409.185 34.4023 399.213 34.9298C391.496 35.3386 383.207 40.3432 381.065 40.7903C372.871 47.1477 371.931 48.6285 364.795 52.4204C355.466 57.3773 343.125 53.3136 334.955 55.0617Z" stroke="white" stroke-opacity="0.35" stroke-width="2" stroke-miterlimit="10"/>
<path d="M298.18 47.6437C268.186 64.4507 261.789 137.484 302.239 135.796C328 134.721 364.031 114.281 388.247 98.1565C410.492 83.3451 444.232 51.7828 442.951 28.4481C442.209 14.8885 428.73 1.2996 409.985 3.91861C395.044 6.00734 379.614 16.687 376.745 18.2506C361.768 31.6262 361.701 35.099 349.474 42.8112C333.284 53.0194 310.712 40.6136 298.18 47.6437Z" stroke="white" stroke-opacity="0.35" stroke-width="2" stroke-miterlimit="10"/>
<path d="M263.456 39.4782C231.382 60.2168 246.778 153.031 304.476 148.598C341.713 145.736 386.265 117.942 412.819 97.5984C436.841 79.1968 477.112 36.8741 472.928 5.50366C470.407 -13.4158 450.363 -32.5448 422.81 -27.8431C400.67 -24.0669 377.845 -7.84799 374.482 -5.0408C350.971 14.5893 353.533 20.8152 336.196 32.4566C313.172 47.9322 280.256 28.6229 263.456 39.4782Z" stroke="white" stroke-opacity="0.35" stroke-width="2" stroke-miterlimit="10"/>
<path d="M230.684 31.5194C196.037 56.3097 233.743 168.674 308.665 161.609C357.394 156.883 410.483 121.818 439.341 97.2517C465.179 75.2595 511.92 22.2059 504.869 -17.239C500.535 -41.4856 473.963 -66.1808 437.595 -59.4052C408.246 -53.9314 378.363 -31.9801 374.174 -28.133C344.711 -1.06738 347.354 6.75202 324.901 22.2965C295.038 43.042 251.424 16.6818 230.684 31.5194Z" stroke="white" stroke-opacity="0.35" stroke-width="2" stroke-miterlimit="10"/>
<path d="M453.571 -91.1952C417.026 -84.0271 380.099 -56.3625 375.06 -51.4515C339.726 -17.0173 342.322 -7.58582 314.782 11.9017C278.059 37.8877 223.548 4.44728 199.119 23.3121C161.595 52.2898 221.84 184.269 314.062 174.371C374.236 167.912 435.937 125.447 467.073 96.6534C494.725 71.0832 547.892 7.31774 537.995 -40.2185C531.835 -69.7841 498.755 -100.059 453.571 -91.1952Z" stroke="white" stroke-opacity="0.35" stroke-width="2" stroke-miterlimit="10"/>
<path d="M89.9408 52.8959C102.912 47.0955 112.158 26.9465 99.4368 29.8752C92.0892 31.5648 75.228 41.4585 69.9495 48.1556C62.5134 57.5833 81.0157 56.8887 89.9408 52.8959Z" stroke="white" stroke-opacity="0.35" stroke-width="2" stroke-miterlimit="10"/>
<path d="M118.727 23.6153C116.603 22.3959 110.266 24.2335 103.793 24.4633C90.6599 24.9272 88.0778 23.534 78.9761 24.3352C75.4251 24.6459 70.6639 25.0963 66.9502 27.4904C61.2634 31.1572 61.7096 35.972 57.3981 46.7005C51.8176 60.6316 49.1602 64.7693 54.4494 68.5134C55.681 69.3832 58.3599 72.7779 64.3314 72.935C72.5991 73.1472 79.3252 67.1981 90.2155 64.9483C103.293 62.2422 111.33 64.149 115.528 59.8871C118.485 56.8851 116.784 52.9876 116.304 45.1061C115.938 39.1022 115.641 35.1876 116.854 31.3524C118.32 26.7765 121.089 24.9704 118.727 23.6153Z" stroke="white" stroke-opacity="0.35" stroke-width="2" stroke-miterlimit="10"/>
<path d="M140.376 18.5587C138.646 15.4993 129.489 17.6886 120.364 16.1905C101.648 13.1156 105.047 3.51874 90.3622 1.71818C84.1309 0.952727 75.1862 1.49462 67.8296 5.39991C57.3901 10.943 56.9026 19.1166 46.6342 39.7823C33.2097 66.801 25.5736 74.3013 32.0459 82.6882C33.3664 84.3969 37.2454 91.4834 47.8397 92.1048C61.9688 92.9331 73.0235 81.6312 92.8733 78.1814C115.049 74.32 127.464 81.5045 133.118 76.3899C137.045 72.8379 132.371 67.5725 130.297 54.1962C128.812 44.6932 128.029 39.102 131.161 32.8578C135.115 24.9806 142.254 21.8821 140.376 18.5587Z" stroke="white" stroke-opacity="0.35" stroke-width="2" stroke-miterlimit="10"/>
<path d="M162.026 13.4529C160.722 8.54913 148.724 11.0876 136.935 7.86671C112.663 1.23689 122.332 -16.5813 101.748 -20.9498C92.9384 -22.818 79.694 -22.1232 68.7096 -16.7399C53.4851 -9.27969 52.0339 2.20469 35.8481 32.8248C14.493 72.9244 2.21167 83.7444 9.61436 96.8263C11.0598 99.3765 16.1072 110.146 31.3225 111.243C51.3135 112.681 66.7205 96.0035 95.502 91.3824C126.797 86.357 143.561 98.8253 150.694 92.856C155.583 88.7468 148.009 82.0899 144.275 63.2479C141.695 50.2357 140.428 42.9953 145.456 34.3235C151.938 23.1479 163.438 18.7322 162.026 13.4529Z" stroke="white" stroke-opacity="0.35" stroke-width="2" stroke-miterlimit="10"/>
<path d="M183.717 8.31666C182.83 1.57877 168.018 4.44403 153.547 -0.485738C123.753 -10.6953 139.746 -36.7049 113.173 -43.6452C101.812 -46.6177 84.2382 -45.759 69.6278 -38.9087C49.6091 -29.5213 47.3004 -14.7362 25.1153 25.8337C-4.04343 79.0112 -21.0329 93.1643 -12.7495 110.924C-11.1706 114.312 -4.95118 128.751 14.8748 130.338C40.743 132.367 60.4677 110.335 98.2012 104.542C138.616 98.34 159.737 116.107 168.312 109.294C174.168 104.631 163.687 96.5771 158.294 72.271C154.626 55.7441 152.869 46.868 159.79 35.762C168.813 21.2926 184.671 15.5625 183.717 8.31666Z" stroke="white" stroke-opacity="0.35" stroke-width="2" stroke-miterlimit="10"/>
<path d="M205.445 3.16231C205.942 12.3781 185.73 19.4165 174.17 37.1784C165.353 50.7216 167.6 61.2301 172.356 81.2733C179.419 111.037 192.799 120.493 185.975 125.707C175.944 133.374 150.468 110.304 100.928 117.688C54.259 124.644 30.1765 152.076 -1.54489 149.419C-26.0001 147.369 -33.363 129.247 -35.0863 125.006C-44.2078 102.556 -22.5442 85.0782 14.421 18.8214C42.6084 -31.6995 45.7676 -49.7781 70.591 -61.0995C88.8247 -69.4156 110.738 -70.4386 124.643 -66.3626C157.199 -56.8318 134.841 -22.6022 170.197 -8.85637C187.331 -2.19579 204.984 -5.41185 205.445 3.16231Z" stroke="white" stroke-opacity="0.35" stroke-width="2" stroke-miterlimit="10"/>
<path d="M100.2 201.453C103.109 198.945 111.166 197.751 113.249 200.51C115.61 203.64 108.912 210.047 104.946 210.724C100.255 211.524 96.338 204.779 100.2 201.453Z" stroke="white" stroke-opacity="0.35" stroke-width="2" stroke-miterlimit="10"/>
<path d="M99.3953 223.976C92.0901 223.346 86.7691 218.621 79.0895 209.887C71.476 201.225 68.5268 193.921 70.799 192.293C72.0386 191.409 76.9688 191.871 81.0676 191.994C88.7366 192.217 99.2678 187.171 102.162 186.284C112.756 183.04 116.751 183.932 122.952 186.281C125.82 187.365 132.402 189.668 136.813 193.849C143.515 200.17 158.26 196.524 158.07 200.326C157.9 203.505 144.708 210.079 135.997 214.01C123.512 219.645 110.687 224.946 99.3953 223.976Z" stroke="white" stroke-opacity="0.35" stroke-width="2" stroke-miterlimit="10"/>
<path d="M93.4628 236.954C81.2372 235.461 72.9327 227.568 58.6361 212.263C44.2066 196.912 38.3604 184.596 41.0239 182.865C43.0198 181.56 52.1472 182.902 59.6179 183.443C73.7122 184.489 93.3351 174.637 97.66 173.195C117.367 166.579 123.988 168.639 135.026 173.184C139.623 175.077 151.764 179.278 160.033 186.917C172.729 198.607 202.33 190.075 202.56 196.384C202.746 201.64 177.278 213.696 160.875 220.493C137.71 230.078 114.123 239.479 93.4628 236.954Z" stroke="white" stroke-opacity="0.35" stroke-width="2" stroke-miterlimit="10"/>
<path d="M87.5583 249.852C70.4043 247.503 59.156 236.416 38.2133 214.559C17.0084 192.495 8.24446 175.21 11.2747 173.346C14.0471 171.633 27.3604 173.846 38.1898 174.822C58.6881 176.718 87.4195 162.031 93.1729 160.019C121.95 149.962 131.252 153.236 147.114 160.002C153.444 162.701 171.138 168.805 183.269 179.894C201.951 196.959 246.408 183.537 247.067 192.351C247.605 199.686 209.867 217.252 185.765 226.883C151.948 240.465 117.555 253.96 87.5583 249.852Z" stroke="white" stroke-opacity="0.35" stroke-width="2" stroke-miterlimit="10"/>
<path d="M81.6827 262.73C59.5919 259.529 45.4048 245.244 17.816 216.835C-10.1741 188.066 -21.8563 165.82 -18.452 163.809C-14.8928 161.702 2.59912 164.757 16.7831 166.172C43.7072 168.885 81.5209 149.394 88.7084 146.826C126.542 133.297 138.581 137.78 159.228 146.8C167.306 150.294 190.537 158.31 206.524 172.855C231.2 195.289 290.516 176.978 291.593 188.301C292.487 197.709 242.465 220.756 210.678 233.256C166.201 250.782 121.006 268.432 81.6827 262.73Z" stroke="white" stroke-opacity="0.35" stroke-width="2" stroke-miterlimit="10"/>
<path d="M84.2557 133.621C131.139 116.612 145.857 122.372 171.351 133.589C181.153 137.901 209.948 147.806 229.794 165.803C260.451 193.616 334.632 170.411 336.134 184.238C337.385 195.735 275.074 224.247 235.603 239.619C180.448 261.093 124.462 282.897 75.8169 275.601C48.7885 271.545 31.6678 254.065 -2.57155 219.102C-37.3248 183.617 -51.9226 156.414 -48.1631 154.261C-43.8037 151.766 -22.1613 155.655 -4.61452 157.512C28.7374 161.039 75.6321 136.749 84.2557 133.621Z" stroke="white" stroke-opacity="0.35" stroke-width="2" stroke-miterlimit="10"/>
<path d="M414.854 -110.465C415.262 -96.5536 375.622 -85.6838 344.082 -40.031C332.781 -23.672 326.89 -9.17738 306.718 1.57251C304.682 2.65652 284.387 13.2424 265.825 11.8537C242.473 10.1073 247.219 -8.70213 216.312 -18.3781C204.928 -21.9429 204.583 -19.2972 196.042 -22.301C159.589 -35.1259 186.181 -76.2045 152.554 -90.7254C137.075 -97.4094 120.772 -93.3192 121.508 -95.4084C124.703 -104.388 413.796 -147.969 414.854 -110.465Z" stroke="white" stroke-opacity="0.35" stroke-width="2" stroke-miterlimit="10"/>
<path d="M293.378 -11.806C292.063 -11.3484 278.546 -4.64972 266.4 -6.06298C251.046 -7.84 254.933 -21.3282 234.934 -28.3993C227.573 -31.0045 227.498 -29.3845 222.075 -31.6219C198.94 -41.1714 218.607 -69.7229 197.494 -79.7476C187.722 -84.3893 177.067 -81.7411 178.186 -83.1089C183.235 -89.3225 375.423 -115.222 372.276 -88.2085C371.097 -78.0777 342.591 -68.9118 319.691 -38.1086C311.362 -26.9126 307.046 -16.5638 293.378 -11.806Z" stroke="white" stroke-opacity="0.35" stroke-width="2" stroke-miterlimit="10"/>
<path d="M280.037 -25.1862C279.42 -25.5615 272.674 -22.5709 266.975 -23.9796C259.577 -25.805 262.636 -33.9348 253.557 -38.4188C250.226 -40.0654 250.403 -39.4777 248.106 -40.9416C238.238 -47.2422 251.061 -63.2414 242.43 -68.7703C238.382 -71.379 233.787 -70.1014 234.84 -70.801C243.555 -73.7981 336.901 -82.353 329.712 -65.9582C326.907 -59.5538 309.463 -52.1048 295.314 -36.1926C289.937 -30.1443 286.529 -25.9493 280.037 -25.1862Z" stroke="white" stroke-opacity="0.35" stroke-width="2" stroke-miterlimit="10"/>
<path d="M266.696 -38.5648C267.486 -48.1745 283.752 -58.5 291.518 -58.5016C302.973 -58.4985 297.506 -49.5026 287.143 -43.7053C279.395 -39.3781 265.793 -27.5672 266.696 -38.5648Z" stroke="white" stroke-opacity="0.35" stroke-width="2" stroke-miterlimit="10"/>
</g>
<defs>
<linearGradient id="paint0_linear_73_1448" x1="2.95112e-08" y1="111.177" x2="361.999" y2="108.625" gradientUnits="userSpaceOnUse">
<stop stop-color="#29323C"/>
<stop offset="0.288462" stop-color="#22483F"/>
<stop offset="1" stop-color="#00B551"/>
</linearGradient>
<linearGradient id="paint1_linear_73_1448" x1="181" y1="0" x2="181" y2="220" gradientUnits="userSpaceOnUse">
<stop stop-color="#16084C"/>
<stop offset="1" stop-color="#3313B2"/>
</linearGradient>
</defs>
</svg>
