<svg width="362" height="220" viewBox="0 0 362 220" fill="none" xmlns="http://www.w3.org/2000/svg">
<g clip-path="url(#clip0_80_1714)">
<rect width="362" height="220" fill="white"/>
<rect width="362" height="220" fill="url(#paint0_linear_80_1714)"/>
<path d="M82.4542 129.234C70.0702 127.401 63.4977 132.383 69.7398 139.207C82.5818 153.249 147.429 174.667 152.18 170.509C156.861 166.412 108.296 133.057 82.4542 129.234Z" stroke="white" stroke-opacity="0.2" stroke-miterlimit="10"/>
<path d="M116.683 123.012C144.634 128.221 176.398 183.049 155.322 184.611C142.364 185.573 115.532 174.12 94.0539 163.554C73.891 153.634 46.5428 135.018 42.9737 120.771C41.089 113.211 46.233 105.559 55.4099 105.817C62.5121 106.018 70.7231 110.471 72.7376 110.836C81.0344 116.547 82.0824 117.9 89.0864 121.254C98.2411 125.638 108.996 121.579 116.683 123.012Z" stroke="white" stroke-opacity="0.2" stroke-miterlimit="10"/>
<path d="M149.33 115.272C178.878 130.176 194.051 197.822 156.883 197.195C133.212 196.796 97.6863 178.659 73.5044 164.254C51.2912 151.022 16.4368 122.508 14.6262 100.817C13.5721 88.2126 24.1498 75.2851 41.6079 77.2807C55.5238 78.8725 70.9839 88.4276 73.804 89.8124C89.1946 101.881 89.6996 105.103 101.854 111.978C117.949 121.078 136.984 109.037 149.33 115.272Z" stroke="white" stroke-opacity="0.2" stroke-miterlimit="10"/>
<path d="M180.009 106.885C211.958 125.391 209.75 211.906 156.475 209.131C122.092 207.34 77.8424 182.574 50.9863 164.307C26.6906 147.784 -15.5049 109.432 -15.6898 80.2146C-15.8031 62.5936 0.0639889 44.3709 25.8345 48.0951C46.5428 51.086 69.4653 65.6113 72.8963 68.139C96.8819 85.8148 95.3371 91.6536 112.662 102.057C135.672 115.888 163.274 97.1987 180.009 106.885Z" stroke="white" stroke-opacity="0.2" stroke-miterlimit="10"/>
<path d="M208.93 98.7356C243.748 120.943 223.656 226.124 154.31 221.306C109.191 218.052 56.2136 186.735 26.7129 164.602C0.300065 144.787 -49.176 96.6249 -47.774 59.8454C-46.9121 37.2372 -25.792 13.6958 8.2969 19.1404C35.807 23.5396 65.9103 43.2221 70.2277 46.6959C100.601 71.1356 99.1849 78.4556 121.682 92.3634C151.613 110.927 188.088 85.4441 208.93 98.7356Z" stroke="white" stroke-opacity="0.2" stroke-miterlimit="10"/>
<path d="M-10.3592 -9.99823C23.9413 -4.19349 61.2088 20.6289 66.4401 25.0705C103.117 56.2139 101.951 65.0292 129.598 82.4791C166.465 105.748 211.991 73.4394 236.717 90.3835C274.698 116.411 236.522 240.324 151.01 233.278C95.214 228.681 33.4247 190.696 1.30311 164.691C-27.2245 141.597 -83.9393 83.6405 -80.9706 39.2838C-79.1202 11.6957 -52.7683 -17.1764 -10.3592 -9.99823Z" stroke="white" stroke-opacity="0.2" stroke-miterlimit="10"/>
<path d="M340.233 115.308C327.643 110.226 316.623 91.7365 328.618 94.1596C335.546 95.5573 352.213 104.35 357.891 110.444C365.888 119.022 348.897 118.807 340.233 115.308Z" stroke="white" stroke-opacity="0.2" stroke-miterlimit="10"/>
<path d="M310.196 88.7969C311.981 87.6156 318.004 89.1742 323.947 89.2371C336.004 89.3625 338.185 88.0093 346.602 88.5415C349.885 88.7474 354.292 89.0549 357.991 91.1909C363.654 94.4627 363.861 98.9424 369.171 108.801C376.048 121.603 379.004 125.383 374.651 128.981C373.637 129.817 371.623 133.031 366.188 133.315C358.663 133.704 351.758 128.338 341.522 126.503C329.23 124.295 322.132 126.251 317.752 122.393C314.667 119.675 315.723 116.017 315.155 108.69C314.722 103.108 314.493 99.4675 312.896 95.9355C310.972 91.7219 308.211 90.1098 310.196 88.7969Z" stroke="white" stroke-opacity="0.2" stroke-miterlimit="10"/>
<path d="M289.773 84.6061C290.963 81.7259 299.607 83.5454 307.752 81.9427C324.457 78.6534 320.126 69.8239 333.311 67.8113C338.906 66.9559 347.146 67.2511 354.365 70.7054C364.61 75.6083 366.1 83.1843 378.12 102.129C393.835 126.898 401.769 133.683 396.928 141.619C395.94 143.235 393.301 149.904 383.703 150.727C370.901 151.824 359.359 141.59 340.785 138.849C320.033 135.779 309.609 142.737 303.791 138.121C299.75 134.915 303.347 129.918 303.533 117.453C303.675 108.597 303.676 103.389 300.018 97.6654C295.4 90.4451 288.482 87.7347 289.773 84.6061Z" stroke="white" stroke-opacity="0.2" stroke-miterlimit="10"/>
<path d="M269.343 80.3695C269.908 75.7872 281.193 77.8648 291.551 74.601C312.877 67.8827 301.768 51.5672 320.014 47.0337C327.823 45.0949 340.011 45.4321 350.733 50.174C365.594 56.7454 368.387 67.3723 387.085 95.4201C411.716 132.147 424.317 141.906 419.226 154.221C418.231 156.622 414.996 166.737 401.236 168.108C383.158 169.908 366.952 154.785 340.069 151.164C310.839 147.226 297.117 159.19 289.838 153.814C284.847 150.113 290.916 143.758 291.92 126.18C292.615 114.042 292.847 107.291 287.146 99.3582C279.797 89.1348 268.728 85.303 269.343 80.3695Z" stroke="white" stroke-opacity="0.2" stroke-miterlimit="10"/>
<path d="M248.871 76.1057C248.821 69.8305 262.719 72.146 275.308 67.2336C301.222 57.0641 283.29 33.2916 306.678 26.2316C316.677 23.2083 332.841 23.5971 347.063 29.6166C366.549 37.8655 370.547 51.5365 395.996 88.681C429.427 137.367 446.755 150.11 441.456 166.789C440.447 169.97 436.61 183.518 418.701 185.452C395.329 187.936 374.495 167.943 339.285 163.442C301.572 158.624 284.547 175.608 275.843 169.482C269.898 165.29 278.444 157.57 280.266 134.882C281.505 119.455 281.977 111.175 274.235 101.027C264.145 87.8046 248.926 82.854 248.871 76.1057Z" stroke="white" stroke-opacity="0.2" stroke-miterlimit="10"/>
<path d="M228.364 71.8259C229.087 80.3922 248.451 86.4562 261.28 102.676C271.065 115.042 270.355 124.849 268.57 143.566C265.92 171.358 254.905 180.447 261.805 185.129C271.948 192.013 292.274 170.006 338.473 175.708C381.995 181.081 407.499 205.986 436.138 202.782C458.217 200.311 462.628 183.319 463.661 179.342C469.125 158.289 447.103 142.569 404.87 81.9232C372.667 35.6809 367.471 18.9723 343.348 9.03979C325.629 1.74391 305.48 1.30342 293.298 5.41022C264.775 15.0138 289.572 46.2688 259.029 59.8503C244.228 66.4312 227.69 63.8561 228.364 71.8259Z" stroke="white" stroke-opacity="0.2" stroke-miterlimit="10"/>
<path d="M349.839 253.449C346.861 251.188 339.348 250.267 337.798 252.876C336.04 255.837 342.977 261.628 346.687 262.165C351.075 262.798 353.791 256.446 349.839 253.449Z" stroke="white" stroke-opacity="0.2" stroke-miterlimit="10"/>
<path d="M353.451 274.338C360.044 273.583 364.301 269.073 370.201 260.787C376.049 252.57 377.81 245.721 375.527 244.263C374.282 243.471 369.837 244.014 366.108 244.224C359.131 244.609 348.865 240.169 346.109 239.414C336.016 236.648 332.48 237.569 327.116 239.894C324.634 240.966 318.916 243.258 315.42 247.241C310.105 253.264 296.169 250.222 296.829 253.748C297.39 256.695 310.28 262.49 318.741 265.937C330.866 270.877 343.259 275.5 353.451 274.338Z" stroke="white" stroke-opacity="0.2" stroke-miterlimit="10"/>
<path d="M360.528 286.247C371.506 284.577 378.084 277.057 389.189 262.518C400.41 247.933 404.177 236.364 401.523 234.819C399.533 233.654 391.366 235.112 384.611 235.788C371.869 237.086 352.684 228.397 348.549 227.158C329.701 221.475 323.916 223.541 314.413 228.017C310.455 229.88 299.901 234.062 293.322 241.345C283.217 252.492 255.087 245.26 255.682 251.122C256.184 256.005 280.99 266.604 296.842 272.533C319.229 280.892 341.977 289.071 360.528 286.247Z" stroke="white" stroke-opacity="0.2" stroke-miterlimit="10"/>
<path d="M367.569 298.082C382.94 295.503 391.799 284.95 408.139 264.174C424.692 243.2 430.49 226.951 427.484 225.292C424.732 223.766 412.853 226.13 403.084 227.287C384.601 229.523 356.478 216.557 350.965 214.823C323.392 206.156 315.312 209.412 301.686 216.061C296.248 218.714 280.864 224.79 271.199 235.367C256.312 251.641 213.984 240.215 214.509 248.412C214.954 255.233 251.673 270.663 274.921 279.043C307.549 290.865 340.692 302.593 367.569 298.082Z" stroke="white" stroke-opacity="0.2" stroke-miterlimit="10"/>
<path d="M374.582 309.901C394.354 306.416 405.489 292.825 427.063 265.813C448.958 238.457 456.788 217.535 453.421 215.748C449.901 213.874 434.312 217.117 421.535 218.76C397.286 221.904 360.252 204.69 353.358 202.472C317.068 190.793 306.643 195.235 288.934 204.087C282 207.518 261.802 215.499 249.055 229.372C229.379 250.771 172.854 235.152 173.315 245.687C173.7 254.441 222.341 274.673 252.976 285.538C295.846 300.773 339.387 316.107 374.582 309.901Z" stroke="white" stroke-opacity="0.2" stroke-miterlimit="10"/>
<path d="M355.739 190.111C310.737 175.412 298.028 181.101 276.171 192.105C267.768 196.336 242.727 206.2 226.896 223.367C202.444 249.897 131.713 230.08 132.107 242.95C132.433 253.652 192.998 278.671 231.02 292.023C284.148 310.676 338.078 329.615 381.585 321.712C405.758 317.319 419.165 300.695 445.977 267.444C473.192 233.696 483.053 208.105 479.344 206.194C475.042 203.979 455.768 208.093 439.976 210.224C409.959 214.273 364.016 192.815 355.739 190.111Z" stroke="white" stroke-opacity="0.2" stroke-miterlimit="10"/>
<path d="M22.5481 -28.7856C23.9531 -15.8625 61.5538 -6.69339 96.198 34.9521C108.612 49.8751 115.844 63.1932 135.645 72.7034C137.644 73.6623 157.536 83.0173 174.316 81.2969C195.425 79.1332 188.687 61.7831 215.685 52.083C225.63 48.5094 226.283 50.9573 233.702 47.9705C265.364 35.2185 235.824 -2.2959 264.688 -16.5566C277.975 -23.1209 293.39 -19.7029 292.451 -21.6251C288.386 -29.8865 18.7242 -63.624 22.5481 -28.7856Z" stroke="white" stroke-opacity="0.2" stroke-miterlimit="10"/>
<path d="M146.123 59.9744C147.383 60.3687 160.587 66.2728 171.502 64.6787C185.301 62.6724 180.027 50.242 197.393 43.2133C203.785 40.6239 204.061 42.126 208.729 39.923C228.643 30.521 207.03 4.47424 225.037 -5.32202C233.371 -9.85786 243.442 -7.64715 242.245 -8.89087C236.84 -14.5415 57.9618 -34.118 64.2875 -9.11473C66.6587 0.262019 93.8705 8.10814 118.725 36.1698C127.764 46.3693 133.029 55.8755 146.123 59.9744Z" stroke="white" stroke-opacity="0.2" stroke-miterlimit="10"/>
<path d="M156.601 47.2439C157.117 46.8813 163.662 49.5006 168.688 48.0605C175.213 46.1941 171.38 38.7185 179.101 34.3452C181.934 32.7393 181.847 33.2889 183.758 31.8766C191.968 25.7987 178.21 11.245 185.389 5.91209C188.754 3.39645 193.114 4.47567 192.062 3.85067C183.719 1.27103 97.3515 -4.50127 106.013 10.5506C109.394 16.4305 126.281 22.9399 141.239 37.382C146.924 42.8715 150.573 46.6864 156.601 47.2439Z" stroke="white" stroke-opacity="0.2" stroke-miterlimit="10"/>
<path d="M167.079 34.515C165.13 25.6128 148.952 16.406 141.857 16.5849C131.394 16.8539 137.537 25.0775 147.744 30.2182C155.375 34.055 169.309 44.7028 167.079 34.515Z" stroke="white" stroke-opacity="0.2" stroke-miterlimit="10"/>
</g>
<defs>
<linearGradient id="paint0_linear_80_1714" x1="2.95112e-08" y1="111.177" x2="361.999" y2="108.625" gradientUnits="userSpaceOnUse">
<stop stop-color="#29323C"/>
<stop offset="0.288462" stop-color="#5F195B"/>
<stop offset="0.524038" stop-color="#860B4D"/>
<stop offset="1" stop-color="#DB0050"/>
</linearGradient>
<clipPath id="clip0_80_1714">
<rect width="362" height="220" fill="white"/>
</clipPath>
</defs>
</svg>
