<svg width="362" height="220" viewBox="0 0 362 220" fill="none" xmlns="http://www.w3.org/2000/svg">
<g clip-path="url(#clip0_80_1717)">
<rect width="362" height="220" fill="white"/>
<rect x="0.000976562" width="362" height="220" fill="url(#paint0_radial_80_1717)"/>
<rect x="0.000976562" width="362" height="220" fill="url(#paint1_radial_80_1717)" fill-opacity="0.7"/>
<rect x="0.000976562" width="362" height="220" fill="url(#paint2_linear_80_1717)" fill-opacity="0.2"/>
<path d="M343.865 210.98C353.928 218.027 354.811 227.995 345.322 230.615C325.799 236.009 264.258 211.478 264.036 203.689C263.818 196.015 322.869 196.274 343.865 210.98Z" stroke="white" stroke-opacity="0.1" stroke-width="1.5" stroke-miterlimit="10"/>
<path d="M324.502 179.696C300.988 164.914 237.654 199.277 251.274 216.167C259.648 226.552 287.052 233.993 310.034 238.486C331.609 242.703 364.737 243.025 377.907 230.704C384.888 224.16 387.006 212.432 380.373 206.059C375.239 201.128 366.144 199.843 364.457 198.767C354.359 198.736 352.611 199.392 345.185 197.831C335.478 195.791 330.969 183.761 324.502 179.696Z" stroke="white" stroke-opacity="0.1" stroke-width="1.5" stroke-miterlimit="10"/>
<path d="M307.385 147.968C275.493 142.172 214.206 201.954 240.759 228.201C257.669 244.917 296.177 251.659 323.931 254.093C349.424 256.329 395.229 251.728 412.737 230.348C422.912 217.926 425.166 196.746 411.421 186.197C400.464 177.79 382.461 176.595 379.446 176.002C359.611 177.487 356.845 180.492 343.168 178.886C325.062 176.756 320.717 150.382 307.385 147.968Z" stroke="white" stroke-opacity="0.1" stroke-width="1.5" stroke-miterlimit="10"/>
<path d="M292.134 116.989C255.86 113.222 192.647 205.323 232.11 240.982C257.58 263.995 307.172 270.117 339.694 270.447C369.113 270.748 427.433 261.17 449.434 230.74C462.705 212.388 465.211 181.84 444.338 167.083C427.566 155.223 400.607 153.826 396.307 153.987C366.243 155.116 362.956 162.342 343.01 160.685C316.509 158.499 311.129 118.968 292.134 116.989Z" stroke="white" stroke-opacity="0.1" stroke-width="1.5" stroke-miterlimit="10"/>
<path d="M277.939 87.5296C236.881 85.5585 172.244 210.132 224.516 255.286C258.615 284.539 319.236 290.126 356.507 288.325C389.876 286.715 460.65 272.144 487.198 232.655C503.517 208.38 506.318 168.466 478.32 149.488C455.721 134.177 419.862 132.978 414.232 133.487C374.621 137.068 370.136 145.751 343.937 144.016C309.036 141.771 302.515 88.7111 277.939 87.5296Z" stroke="white" stroke-opacity="0.1" stroke-width="1.5" stroke-miterlimit="10"/>
<path d="M513.225 132.509C484.808 113.754 440.074 112.746 433.078 113.606C384.026 119.637 378.245 129.703 345.781 127.946C302.49 125.602 294.727 58.8517 264.691 58.6795C218.554 58.4155 152.586 215.674 217.87 270.198C260.467 305.775 332.264 310.764 374.273 306.81C411.58 303.301 494.765 283.724 525.886 235.174C545.24 204.974 548.36 155.697 513.225 132.509Z" stroke="white" stroke-opacity="0.1" stroke-width="1.5" stroke-miterlimit="10"/>
<path d="M173.388 9.82633C186.029 13.6224 207.602 2.25742 197.371 -3.88989C191.463 -7.44246 173.185 -10.3088 164.639 -8.04338C152.604 -4.85782 164.689 7.2159 173.388 9.82633Z" stroke="white" stroke-opacity="0.1" stroke-width="1.5" stroke-miterlimit="10"/>
<path d="M214.313 3.83406C213.945 1.30647 208.551 -1.42268 204.333 -5.6587C195.779 -14.2542 195.261 -17.2483 188.956 -22.784C186.498 -24.9454 183.175 -27.8136 178.98 -28.256C172.557 -28.9328 169.058 -24.3967 157.952 -17.9262C143.542 -9.51192 138.638 -7.69828 139 -0.782771C139.086 0.825795 138.093 5.64485 141.694 9.87663C146.684 15.7309 155.547 15.115 164.104 20.6039C174.383 27.1912 177.9 34.3762 183.861 33.5096C188.061 32.8996 190.058 28.309 195.942 21.0553C200.424 15.5293 203.31 11.8863 207.075 9.34801C211.579 6.33245 214.723 6.64441 214.313 3.83406Z" stroke="white" stroke-opacity="0.1" stroke-width="1.5" stroke-miterlimit="10"/>
<path d="M231.783 14.2328C233.103 10.3584 225.675 6.00505 221.159 -1.56713C211.898 -17.0993 221.547 -23.2012 213.801 -34.8498C210.515 -39.7942 204.512 -45.45 196.859 -47.062C186 -49.3484 179.283 -42.5013 156.666 -31.3837C127.096 -16.8479 116.45 -15.4929 113.907 -3.68719C113.39 -1.28059 110.249 7.60481 116.369 15.4135C124.532 25.8274 140.293 23.4759 155.38 34.0527C172.24 45.8626 174.347 60.6856 181.885 60.0679C187.121 59.639 188.337 51.8087 197.538 38.6344C204.067 29.2673 207.965 23.818 214.817 20.4788C223.463 16.2685 230.346 18.44 231.783 14.2328Z" stroke="white" stroke-opacity="0.1" stroke-width="1.5" stroke-miterlimit="10"/>
<path d="M249.291 24.5888C252.325 19.3861 242.85 13.3913 238.024 2.47953C228.087 -19.9849 248.097 -29.0111 238.686 -46.9605C234.657 -54.6414 225.852 -63.1104 214.778 -65.9109C199.43 -69.7932 189.515 -60.6979 155.397 -44.8908C110.619 -24.2988 94.4706 -23.2116 88.8244 -6.643C87.7252 -3.41151 82.4241 9.51103 91.0534 20.9052C102.393 35.8734 125.087 31.7825 146.663 47.4532C170.124 64.4918 170.798 86.9391 179.929 86.5843C186.202 86.3254 186.701 75.284 199.154 56.1695C207.753 42.9683 212.644 35.7386 222.583 31.5666C235.393 26.1912 246.03 30.1947 249.291 24.5888Z" stroke="white" stroke-opacity="0.1" stroke-width="1.5" stroke-miterlimit="10"/>
<path d="M266.849 34.9462C271.582 28.418 260.096 20.7809 254.938 6.52968C244.365 -22.866 274.745 -34.7544 263.617 -59.0686C258.863 -69.4689 247.229 -80.7618 232.742 -84.7591C212.892 -90.2348 199.853 -78.8273 154.188 -58.391C94.2826 -31.6583 72.5829 -30.8702 63.8159 -9.58759C62.1428 -5.52865 54.6938 11.4213 65.8144 26.4068C80.3562 45.9232 109.943 40.088 138.022 60.8658C168.094 83.1225 167.328 113.212 178.022 113.104C185.332 113.022 185.114 98.7609 200.819 73.7082C211.497 56.6733 217.365 47.6699 230.395 42.6569C247.374 36.1293 261.759 41.966 266.849 34.9462Z" stroke="white" stroke-opacity="0.1" stroke-width="1.5" stroke-miterlimit="10"/>
<path d="M284.444 45.3127C277.524 53.7503 259.396 46.0782 238.252 53.7589C222.128 59.614 215.285 70.387 202.527 91.2576C183.582 122.25 184.508 139.731 176.161 139.634C163.89 139.493 166.1 101.759 129.41 74.285C94.8454 48.4031 58.3039 55.9957 40.6042 31.9149C26.96 13.3488 36.5844 -7.62018 38.8369 -12.5278C50.7612 -38.5064 77.9842 -39.0108 153.019 -71.8834C210.235 -96.9479 226.388 -110.666 250.753 -103.596C268.649 -98.4024 283.118 -84.2791 288.593 -71.165C301.421 -40.4732 260.622 -25.7262 271.889 10.5889C277.35 28.1869 290.884 37.4636 284.444 45.3127Z" stroke="white" stroke-opacity="0.1" stroke-width="1.5" stroke-miterlimit="10"/>
<path d="M63.2385 147.383C67.0211 147.173 72.9826 151.647 72.1173 155.499C71.1343 159.869 61.9306 160.905 58.9259 158.782C55.3726 156.268 58.2213 147.657 63.2385 147.383Z" stroke="white" stroke-opacity="0.1" stroke-width="1.5" stroke-miterlimit="10"/>
<path d="M45.0669 166.62C41.0055 161.058 41.3934 153.259 43.4561 140.32C45.5028 127.491 49.3942 119.051 52.0881 119.179C53.5546 119.252 56.2676 123.038 58.727 125.956C63.3351 131.409 73.8624 134.195 76.3628 135.4C85.5163 139.812 87.3075 143.335 89.332 149.65C90.2707 152.568 92.5684 159.104 92.0403 165.801C91.2615 175.949 103.318 182.854 100.216 186.064C97.6159 188.741 84.2314 185.474 75.7138 182.955C63.5065 179.347 51.349 175.213 45.0669 166.62Z" stroke="white" stroke-opacity="0.1" stroke-width="1.5" stroke-miterlimit="10"/>
<path d="M31.1857 173.955C24.7316 164.263 25.7445 151.635 28.8352 128.387C31.8788 105.008 37.8952 90.1784 40.9141 90.4838C43.183 90.7052 47.8228 98.1415 52.0575 103.739C60.0275 114.32 79.9953 119.116 83.8244 120.813C101.305 128.511 103.819 134.86 107.137 146.42C108.52 151.234 112.796 163.248 111.961 175.629C110.708 194.603 135.863 207.4 131.057 213.101C127.049 217.846 101.707 210.978 86.1444 205.706C64.1764 198.247 42.09 190.338 31.1857 173.955Z" stroke="white" stroke-opacity="0.1" stroke-width="1.5" stroke-miterlimit="10"/>
<path d="M17.3844 181.239C8.52842 167.416 10.2111 149.964 14.2968 116.403C18.3814 82.4807 26.4756 61.2863 29.8277 61.7261C32.901 62.1214 39.4678 73.193 45.457 81.4737C56.7538 97.1923 86.1961 103.984 91.3624 106.161C117.201 117.052 120.433 126.306 125.018 143.125C126.849 149.836 133.096 167.328 131.962 185.388C130.226 213.188 168.484 231.873 161.98 240.068C156.561 246.881 119.242 236.445 96.6547 228.383C64.9078 217.134 32.8699 205.413 17.3844 181.239Z" stroke="white" stroke-opacity="0.1" stroke-width="1.5" stroke-miterlimit="10"/>
<path d="M3.61605 188.527C-7.65013 170.57 -5.29118 148.293 -0.210502 104.42C4.90238 59.9548 15.0692 32.4006 18.7696 32.968C22.6428 33.5564 31.1552 48.2323 38.8918 59.199C53.5556 80.0402 92.4309 88.8381 98.9287 91.5086C133.139 105.559 137.13 117.751 142.931 139.83C145.228 148.437 153.428 171.406 151.989 195.145C149.778 231.772 201.138 256.347 192.928 267.034C186.105 275.913 136.825 261.87 107.192 251.062C65.7035 235.969 23.6691 220.494 3.61605 188.527Z" stroke="white" stroke-opacity="0.1" stroke-width="1.5" stroke-miterlimit="10"/>
<path d="M106.511 76.8541C149.095 94.0506 153.756 109.201 160.857 136.533C163.587 147.041 173.776 175.484 172.034 204.902C169.334 250.355 233.806 280.821 223.895 293.999C215.656 304.958 154.424 287.292 117.746 273.739C66.4997 254.796 14.4756 235.573 -10.1395 195.814C-23.8151 173.721 -20.7796 146.627 -14.7051 92.4356C-8.54087 37.4331 3.69606 3.52511 7.72986 4.2109C12.4062 5.00719 22.8531 23.2611 32.34 36.9216C50.3747 62.8841 98.6784 73.6911 106.511 76.8541Z" stroke="white" stroke-opacity="0.1" stroke-width="1.5" stroke-miterlimit="10"/>
<path d="M504.195 89.037C493.535 101.539 460.285 83.9145 404.797 102.404C384.915 109.029 369.87 117.726 348.855 113.342C346.735 112.899 325.772 108.287 315.284 94.3416C302.09 76.7985 319.807 63.5262 308.121 33.8368C303.817 22.9003 301.527 24.9884 298.556 16.4941C285.882 -19.7638 334.695 -37.6257 325.114 -73.4365C320.704 -89.9208 307.328 -97.5028 309.426 -98.8338C318.463 -104.534 532.958 55.3604 504.195 89.037Z" stroke="white" stroke-opacity="0.1" stroke-width="1.5" stroke-miterlimit="10"/>
<path d="M351.03 92.4427C349.851 91.9433 336.166 88.5624 329.699 78.9941C321.517 66.9075 334.523 57.7213 327.598 37.7984C325.05 30.463 323.732 31.8347 322.106 26.1517C315.169 1.90155 349.834 -9.70151 344.531 -32.9834C342.077 -43.7608 333.355 -48.7381 335.126 -49.1726C343.149 -51.1712 483.335 57.8256 460.179 79.4029C451.495 87.4956 426.526 76.0069 388.077 87.3716C374.098 91.4987 363.288 97.6323 351.03 92.4427Z" stroke="white" stroke-opacity="0.1" stroke-width="1.5" stroke-miterlimit="10"/>
<path d="M353.207 71.5409C353.117 70.7883 346.563 68.7912 344.114 63.6465C340.932 56.9713 349.218 51.9256 347.073 41.762C346.287 38.0315 345.937 38.6691 345.653 35.8084C344.441 23.5078 364.991 18.2417 363.945 7.46688C363.467 2.39948 359.599 0.372169 360.805 0.479686C368.591 3.82037 433.522 60.2966 416.176 69.773C409.402 73.4769 392.678 68.063 371.37 72.3439C363.271 73.9717 357.855 75.3214 353.207 71.5409Z" stroke="white" stroke-opacity="0.1" stroke-width="1.5" stroke-miterlimit="10"/>
<path d="M355.382 50.6411C363.414 42.7392 381.66 44.8182 386.505 50.1409C393.646 57.9959 383.179 62.1521 372.168 60.1415C363.94 58.6316 346.191 59.6844 355.382 50.6411Z" stroke="white" stroke-opacity="0.1" stroke-width="1.5" stroke-miterlimit="10"/>
</g>
<defs>
<radialGradient id="paint0_radial_80_1717" cx="0" cy="0" r="1" gradientUnits="userSpaceOnUse" gradientTransform="translate(313.001 56.1) rotate(147.817) scale(245.762 213.141)">
<stop offset="0.596154" stop-color="#1700FF"/>
<stop offset="1"/>
</radialGradient>
<radialGradient id="paint1_radial_80_1717" cx="0" cy="0" r="1" gradientUnits="userSpaceOnUse" gradientTransform="translate(307.001 55) rotate(-23.8252) scale(152.495 295.02)">
<stop stop-color="#F00000" stop-opacity="0.88"/>
<stop offset="0.389423" stop-color="#6C0000" stop-opacity="0.945769"/>
<stop offset="1"/>
</radialGradient>
<linearGradient id="paint2_linear_80_1717" x1="185.001" y1="153.45" x2="140.399" y2="18.2935" gradientUnits="userSpaceOnUse">
<stop/>
<stop offset="0.254808" stop-color="#081C00"/>
<stop offset="0.447115" stop-color="#103C00"/>
<stop offset="1" stop-color="#44FF00" stop-opacity="0.71"/>
</linearGradient>
<clipPath id="clip0_80_1717">
<rect width="362" height="220" fill="white"/>
</clipPath>
</defs>
</svg>
