<svg width="362" height="220" viewBox="0 0 362 220" fill="none" xmlns="http://www.w3.org/2000/svg">
<g clip-path="url(#clip0_80_1715)">
<rect width="362" height="220" fill="white"/>
<rect width="362" height="220" fill="#1238FF"/>
<path d="M-0.307692 -2.10432C-0.807937 -82.5084 78.7427 -181.032 170.835 -181.468C262.927 -181.905 349.991 -84.1721 350.491 -3.76802C350.992 76.6361 303.581 41.7794 172.629 106.954C22.6897 154.363 0.192552 78.2998 -0.307692 -2.10432Z" fill="white" fill-opacity="0.15"/>
<path d="M-12.7884 33.3533C-13.3339 -54.3239 73.4126 -161.759 173.835 -162.235C274.258 -162.712 369.197 -56.1381 369.743 31.5391C370.288 119.216 318.589 81.2065 175.792 152.277C12.2892 203.975 -12.2429 121.031 -12.7884 33.3533Z" fill="white" fill-opacity="0.15"/>
<path d="M-9.74813 -50.7892C-10.2484 -131.193 69.3022 -229.717 161.394 -230.153C253.486 -230.59 340.551 -132.857 341.051 -52.4529C341.551 27.9512 294.14 -6.90554 163.189 58.2691C13.2492 105.678 -9.24788 29.6149 -9.74813 -50.7892Z" fill="white" fill-opacity="0.15"/>
</g>
<defs>
<clipPath id="clip0_80_1715">
<rect width="362" height="220" fill="white"/>
</clipPath>
</defs>
</svg>
