<svg width="50" height="50" viewBox="0 0 50 50" fill="none" xmlns="http://www.w3.org/2000/svg">
<rect width="50" height="50" rx="8" fill="#FFF7EE"/>
<g filter="url(#filter0_d_84_298)">
<path fill-rule="evenodd" clip-rule="evenodd" d="M25 14C22.9367 14 21.2037 14.1091 19.7751 14.4266C18.334 14.7469 17.1363 15.2936 16.2149 16.2149C15.2936 17.1363 14.7469 18.334 14.4266 19.7751C14.1091 21.2037 14 22.9367 14 25C14 27.0633 14.1091 28.7963 14.4266 30.2249C14.7469 31.666 15.2936 32.8637 16.2149 33.785C17.1363 34.7064 18.334 35.2531 19.7751 35.5734C21.2037 35.8909 22.9367 36 25 36C27.0633 36 28.7963 35.8909 30.2249 35.5734C31.666 35.2531 32.8637 34.7064 33.785 33.785C34.7064 32.8637 35.2531 31.666 35.5734 30.2249C35.8909 28.7963 36 27.0633 36 25C36 22.9367 35.8909 21.2037 35.5734 19.7751C35.2531 18.334 34.7064 17.1363 33.785 16.2149C32.8637 15.2936 31.666 14.7469 30.2249 14.4266C28.7963 14.1091 27.0633 14 25 14ZM20.6 19.5C20.6 18.8925 21.0925 18.4 21.7 18.4H28.3C28.9075 18.4 29.4 18.8925 29.4 19.5C29.4 20.1075 28.9075 20.6 28.3 20.6H26.1119C26.448 21.1093 26.678 21.6713 26.8055 22.25H28.3C28.9075 22.25 29.4 22.7425 29.4 23.35C29.4 23.9575 28.9075 24.45 28.3 24.45H26.8055C26.6299 25.2479 26.2591 26.0135 25.6843 26.6537C25.2161 27.1754 24.629 27.5956 23.9365 27.8809L25.7778 29.7222C26.2074 30.1517 26.2074 30.8483 25.7778 31.2778C25.3483 31.7074 24.6517 31.7074 24.2222 31.2778L21.0562 28.1119C20.6648 27.7204 20.6449 27.1853 20.8117 26.8054C20.9743 26.4352 21.3515 26.1143 21.8563 26.0974C22.9063 26.0622 23.6067 25.6748 24.0472 25.1842C24.2417 24.9675 24.3961 24.7186 24.5082 24.45H21.7C21.0925 24.45 20.6 23.9575 20.6 23.35C20.6 22.7425 21.0925 22.25 21.7 22.25H24.5082C24.3836 21.9512 24.2065 21.677 23.9802 21.444C23.5186 20.9689 22.7894 20.6 21.7 20.6C21.0925 20.6 20.6 20.1075 20.6 19.5Z" fill="#6D4922"/>
</g>
<defs>
<filter id="filter0_d_84_298" x="13" y="13" width="24" height="24" filterUnits="userSpaceOnUse" color-interpolation-filters="sRGB">
<feFlood flood-opacity="0" result="BackgroundImageFix"/>
<feColorMatrix in="SourceAlpha" type="matrix" values="0 0 0 0 0 0 0 0 0 0 0 0 0 0 0 0 0 0 127 0" result="hardAlpha"/>
<feOffset/>
<feGaussianBlur stdDeviation="0.5"/>
<feComposite in2="hardAlpha" operator="out"/>
<feColorMatrix type="matrix" values="0 0 0 0 0.427451 0 0 0 0 0.286275 0 0 0 0 0.133333 0 0 0 0.5 0"/>
<feBlend mode="normal" in2="BackgroundImageFix" result="effect1_dropShadow_84_298"/>
<feBlend mode="normal" in="SourceGraphic" in2="effect1_dropShadow_84_298" result="shape"/>
</filter>
</defs>
</svg>
