<svg width="21" height="22" viewBox="0 0 21 22" fill="none" xmlns="http://www.w3.org/2000/svg">
<path d="M11.0032 1.00317C5.48214 0.861604 0.861604 5.48214 1.00317 11.0032C1.14124 16.3879 5.62331 20.7714 11.0032 20.5032C16.3972 20.2342 20.5623 15.3748 20.0032 10.0032M15.0032 6.50317C15.0032 6.50317 18.0505 3.15105 20.0032 1.00317M20.0032 1.00317V5.50317M20.0032 1.00317L15.5032 1.00317" stroke="#BA8263" stroke-width="1.5" stroke-linecap="round" stroke-linejoin="round"/>
<path d="M8.5 13C9 13.5 10 14 11 14M11 14C12.25 14 13.5 13.75 13.5 12.5C13.5 11.25 12.2748 11 11 11M11 14V11M11 14V15.5M11 11C9.75 11 8.5 10.75 8.5 9.5C8.5 8.25 9.75 8 11 8M11 11V8M11 8C12 8 13 8.5 13.5 9M11 8V6.5" stroke="#BA8263" stroke-width="1.2" stroke-linecap="round" stroke-linejoin="round"/>
</svg>
