<svg width="21" height="22" viewBox="0 0 21 22" fill="none" xmlns="http://www.w3.org/2000/svg">
<path d="M11.0032 1.00317C5.48214 0.861604 0.861604 5.48214 1.00317 11.0032C1.14124 16.3879 5.62331 20.7714 11.0032 20.5032C16.3972 20.2342 20.5623 15.3748 20.0032 10.0032M15.0032 6.50317C15.0032 6.50317 18.0505 3.15105 20.0032 1.00317M20.0032 1.00317V5.50317M20.0032 1.00317L15.5032 1.00317" stroke="#BA8263" stroke-width="1.5" stroke-linecap="round" stroke-linejoin="round"/>
<path d="M13.75 8.25C13.5 8 12.75 7.5 11.5 7.5C9.68395 7.5 8.8451 8.64006 8.58908 10M13.75 13.75C13.5 14 12.75 14.5 11.5 14.5C9.68395 14.5 8.8451 13.3599 8.58908 12M8.58908 10C8.5279 10.325 8.5 10.6625 8.5 11C8.5 11.3375 8.5279 11.675 8.58908 12M8.58908 10H7M8.58908 10H12M8.58908 12H7H12" stroke="#BA8263" stroke-width="1.2" stroke-linecap="round" stroke-linejoin="round"/>
</svg>
