<svg width="50" height="24" viewBox="0 0 50 24" fill="none" xmlns="http://www.w3.org/2000/svg">
<path d="M22.0019 1V4C17.9973 5.61101 16.2271 7.7559 16.0019 11.5C15.7579 15.5558 17.7441 17.8079 22.0019 20V23.5C16.1053 20.4315 13.1333 17.231 13.5019 11.5C13.8405 6.23518 16.0703 3.22428 22.0019 1Z" fill="#BD7C59"/>
<path d="M9.00005 1V4C4.9955 5.61101 3.22526 7.7559 3.00005 11.5C2.75609 15.5558 4.74229 17.8079 9.00005 20V23.5C3.10349 20.4315 0.131476 17.231 0.500052 11.5C0.838647 6.23518 3.06844 3.22428 9.00005 1Z" fill="#BD7C59"/>
<path d="M22.0019 1V4C17.9973 5.61101 16.2271 7.7559 16.0019 11.5C15.7579 15.5558 17.7441 17.8079 22.0019 20V23.5C16.1053 20.4315 13.1333 17.231 13.5019 11.5C13.8405 6.23518 16.0703 3.22428 22.0019 1Z" stroke="#BA8263" stroke-width="0.5"/>
<path d="M9.00005 1V4C4.9955 5.61101 3.22526 7.7559 3.00005 11.5C2.75609 15.5558 4.74229 17.8079 9.00005 20V23.5C3.10349 20.4315 0.131476 17.231 0.500052 11.5C0.838647 6.23518 3.06844 3.22428 9.00005 1Z" stroke="#BA8263" stroke-width="0.5"/>
<path d="M27.5001 11.4999C27.6382 5.83902 32.3392 1.36186 38.0001 1.49994C43.5213 1.6346 47.8654 5.97873 48.0001 11.4999C48.1382 17.1609 43.661 21.8619 38.0001 21.9999C32.2028 22.1413 27.3587 17.2972 27.5001 11.4999Z" stroke="#BD7C59" stroke-width="3"/>
<path d="M37.5 7.5C37.5 11.6005 37.5 11.8995 37.5 16M41.5 11.5C37.5948 11.5 37.4052 11.5 33.5 11.5" stroke="#BD7C59" stroke-width="1.4" stroke-linecap="round"/>
</svg>
