<svg width="18" height="18" viewBox="0 0 18 18" fill="none" xmlns="http://www.w3.org/2000/svg">
<path d="M18 12C18 14.8284 18 16.2426 17.1213 17.1213C16.2426 18 14.8284 18 12 18H6C3.17157 18 1.75736 18 0.87868 17.1213C0 16.2426 0 14.8284 0 12V6C0 3.17157 0 1.75736 0.87868 0.87868C1.75736 0 3.17157 0 6 0H12C14.8284 0 16.2426 0 17.1213 0.87868C18 1.75736 18 3.17157 18 6V12ZM8.78418 4.92871C6.41383 4.93339 4.49556 6.85635 4.5 9.22266C4.5046 11.5897 6.4303 13.5046 8.80078 13.5C11.1716 13.4954 13.0905 11.5731 13.0859 9.20605C13.0811 6.84001 11.1551 4.92411 8.78418 4.92871ZM8.78711 6.43262C10.3259 6.42965 11.5768 7.67263 11.5801 9.20898C11.5831 10.7456 10.337 11.9941 8.79785 11.9971C7.25923 12 6.00884 10.7563 6.00586 9.21973C6.0033 7.68362 7.24867 6.43543 8.78711 6.43262ZM13.2451 3.75C12.6913 3.75108 12.2423 4.20037 12.2432 4.75293C12.2442 5.30553 12.6946 5.75375 13.248 5.75293C13.8019 5.75185 14.2506 5.30256 14.25 4.75C14.2489 4.19737 13.7989 3.74912 13.2451 3.75Z" fill="#885B2B"/>
<path d="M18 12C18 14.8284 18 16.2426 17.1213 17.1213C16.2426 18 14.8284 18 12 18H6C3.17157 18 1.75736 18 0.87868 17.1213C0 16.2426 0 14.8284 0 12V6C0 3.17157 0 1.75736 0.87868 0.87868C1.75736 0 3.17157 0 6 0H12C14.8284 0 16.2426 0 17.1213 0.87868C18 1.75736 18 3.17157 18 6V12ZM8.78418 4.92871C6.41383 4.93339 4.49556 6.85635 4.5 9.22266C4.5046 11.5897 6.4303 13.5046 8.80078 13.5C11.1716 13.4954 13.0905 11.5731 13.0859 9.20605C13.0811 6.84001 11.1551 4.92411 8.78418 4.92871ZM8.78711 6.43262C10.3259 6.42965 11.5768 7.67263 11.5801 9.20898C11.5831 10.7456 10.337 11.9941 8.79785 11.9971C7.25923 12 6.00884 10.7563 6.00586 9.21973C6.0033 7.68362 7.24867 6.43543 8.78711 6.43262ZM13.2451 3.75C12.6913 3.75108 12.2423 4.20037 12.2432 4.75293C12.2442 5.30553 12.6946 5.75375 13.248 5.75293C13.8019 5.75185 14.2506 5.30256 14.25 4.75C14.2489 4.19737 13.7989 3.74912 13.2451 3.75Z" fill="black" fill-opacity="0.2"/>
</svg>
