<svg width="50" height="50" viewBox="0 0 50 50" fill="none" xmlns="http://www.w3.org/2000/svg">
<rect width="50" height="50" rx="8" fill="#FFF7EE"/>
<g filter="url(#filter0_d_84_296)">
<path d="M25.0019 36C23.4805 36 22.0505 35.7113 20.7118 35.1339C19.3731 34.5565 18.2086 33.7729 17.2184 32.7831C16.2281 31.7932 15.4441 30.6293 14.8665 29.2912C14.2888 27.9531 14 26.5233 14 25.0019C14 23.4805 14.2887 22.0505 14.8661 20.7118C15.4435 19.3731 16.2271 18.2086 17.2169 17.2184C18.2068 16.2281 19.3707 15.4441 20.7088 14.8665C22.0469 14.2888 23.4767 14 24.9981 14C26.5195 14 27.9495 14.2887 29.2882 14.8661C30.6269 15.4435 31.7914 16.2271 32.7816 17.2169C33.7719 18.2068 34.5559 19.3707 35.1335 20.7088C35.7112 22.0469 36 23.4767 36 24.9981C36 26.5195 35.7113 27.9495 35.1339 29.2882C34.5565 30.6269 33.7729 31.7914 32.7831 32.7816C31.7932 33.7719 30.6293 34.5559 29.2912 35.1335C27.9531 35.7112 26.5233 36 25.0019 36ZM25 34.2632C27.586 34.2632 29.7763 33.3658 31.5711 31.5711C33.3658 29.7763 34.2632 27.586 34.2632 25C34.2632 24.8649 34.2602 24.7269 34.2543 24.5858C34.2483 24.4448 34.2417 24.3186 34.2342 24.2073C34.16 24.7447 33.9273 25.1893 33.5362 25.5411C33.145 25.8929 32.6748 26.0688 32.1255 26.0688H29.498C28.9101 26.0688 28.4069 25.8597 27.9883 25.4413C27.5697 25.023 27.3603 24.5201 27.3603 23.9327V22.8647H23.085V20.7285C23.085 20.1411 23.2943 19.6373 23.713 19.2172C24.1316 18.7971 24.6348 18.5871 25.2227 18.5871H26.2915V18.1417C26.2915 17.6384 26.4437 17.2217 26.748 16.8914C27.0523 16.5611 27.419 16.3306 27.848 16.2C27.3952 16.0515 26.9336 15.9372 26.4631 15.8571C25.9926 15.7769 25.5049 15.7368 25 15.7368C22.414 15.7368 20.2237 16.6342 18.4289 18.4289C16.6342 20.2237 15.7368 22.414 15.7368 25V25.167C15.7368 25.219 15.7405 25.2746 15.748 25.334H21.2368C22.4214 25.334 23.4301 25.7504 24.2629 26.5832C25.0957 27.416 25.5121 28.423 25.5121 29.6043V30.6782H22.3056V33.8512C22.7361 33.9848 23.1748 34.0869 23.6216 34.1574C24.0685 34.2279 24.5279 34.2632 25 34.2632Z" fill="#6D4922"/>
</g>
<defs>
<filter id="filter0_d_84_296" x="13" y="13" width="24" height="24" filterUnits="userSpaceOnUse" color-interpolation-filters="sRGB">
<feFlood flood-opacity="0" result="BackgroundImageFix"/>
<feColorMatrix in="SourceAlpha" type="matrix" values="0 0 0 0 0 0 0 0 0 0 0 0 0 0 0 0 0 0 127 0" result="hardAlpha"/>
<feOffset/>
<feGaussianBlur stdDeviation="0.5"/>
<feComposite in2="hardAlpha" operator="out"/>
<feColorMatrix type="matrix" values="0 0 0 0 0.427451 0 0 0 0 0.286275 0 0 0 0 0.133333 0 0 0 0.5 0"/>
<feBlend mode="normal" in2="BackgroundImageFix" result="effect1_dropShadow_84_296"/>
<feBlend mode="normal" in="SourceGraphic" in2="effect1_dropShadow_84_296" result="shape"/>
</filter>
</defs>
</svg>
