<svg width="44" height="44" viewBox="0 0 44 44" fill="none" xmlns="http://www.w3.org/2000/svg">
<path d="M27.9493 11.3284H16.0515V32.709H27.9493V11.3284Z" fill="#9A784F"/>
<path d="M16.8068 22.0193C16.805 19.9602 17.2716 17.9277 18.1714 16.0756C19.0711 14.2234 20.3805 12.6003 22.0003 11.329C19.9944 9.75233 17.5853 8.77181 15.0485 8.49953C12.5117 8.22725 9.94947 8.6742 7.65467 9.78929C5.35986 10.9044 3.42507 12.6426 2.07145 14.8053C0.717834 16.968 0 19.4679 0 22.0193C0 24.5707 0.717834 27.0706 2.07145 29.2333C3.42507 31.396 5.35986 33.1343 7.65467 34.2494C9.94947 35.3644 12.5117 35.8114 15.0485 35.5391C17.5853 35.2668 19.9944 34.2863 22.0003 32.7096C20.3805 31.4383 19.0711 29.8152 18.1714 27.9631C17.2716 26.111 16.805 24.0784 16.8068 22.0193V22.0193Z" fill="#A36D4D"/>
<path d="M44.0001 22.0193C44.0002 24.5707 43.2824 27.0706 41.9289 29.2333C40.5753 31.396 38.6406 33.1342 36.3459 34.2493C34.0511 35.3644 31.4889 35.8114 28.9521 35.5391C26.4153 35.2668 24.0063 34.2863 22.0005 32.7096C23.6189 31.4371 24.9272 29.8137 25.8268 27.9618C26.7264 26.11 27.1939 24.0781 27.1939 22.0193C27.1939 19.9605 26.7264 17.9286 25.8268 16.0768C24.9272 14.225 23.6189 12.6016 22.0005 11.329C24.0063 9.75232 26.4153 8.77181 28.9521 8.49953C31.4889 8.22726 34.0511 8.67421 36.3459 9.78931C38.6406 10.9044 40.5753 12.6426 41.9289 14.8054C43.2824 16.9681 44.0002 19.468 44.0001 22.0193V22.0193Z" fill="#35684C"/>
<path d="M42.7027 30.4448V30.007H42.8792V29.9179H42.4297V30.007H42.6063V30.4448H42.7027ZM43.5754 30.4448V29.917H43.4376L43.2791 30.28L43.1206 29.917H42.9827V30.4448H43.08V30.0467L43.2287 30.3899H43.3295L43.4782 30.0458V30.4448H43.5754Z" fill="#35684C"/>
</svg>
