<svg width="50" height="50" viewBox="0 0 50 50" fill="none" xmlns="http://www.w3.org/2000/svg">
<rect width="50" height="50" rx="8" fill="#FFF7EE"/>
<g filter="url(#filter0_d_84_293)">
<path fill-rule="evenodd" clip-rule="evenodd" d="M25.0475 16.8182C23.5484 16.8182 22.3332 18.0392 22.3332 19.5454C22.3332 21.0516 23.5484 22.2726 25.0475 22.2726C26.5465 22.2726 27.7617 21.0516 27.7617 19.5454C27.7617 18.0392 26.5465 16.8182 25.0475 16.8182ZM20.5237 19.5454C20.5237 17.035 22.5491 15 25.0475 15C27.5459 15 29.5712 17.035 29.5712 19.5454C29.5712 22.0557 27.5459 24.0908 25.0475 24.0908C22.5491 24.0908 20.5237 22.0557 20.5237 19.5454ZM19.4185 26.9544C21.2239 26.1412 23.4045 25.9089 25.0475 25.9089C25.3513 25.9089 25.6707 25.9169 26.0004 25.9345C26.4994 25.9613 26.8823 26.3894 26.8557 26.8908C26.8291 27.3921 26.403 27.7769 25.904 27.7501C25.6074 27.7342 25.3202 27.7271 25.0475 27.7271C23.5239 27.7271 21.6331 27.9494 20.1587 28.6134C18.7169 29.2629 17.8095 30.2525 17.8095 31.8179V32.727C17.8095 32.9834 18.019 33.1816 18.2453 33.1816H23.238C23.7377 33.1816 24.1427 33.5886 24.1427 34.0906C24.1427 34.5927 23.7377 34.9997 23.238 34.9997H18.2453C16.9909 34.9997 16 33.9584 16 32.727V31.8179C16 29.2925 17.5806 27.7822 19.4185 26.9544ZM30.1791 26.74C30.7087 26.2079 31.427 25.9089 32.176 25.9089C32.925 25.9089 33.6433 26.2079 34.1729 26.74C34.7025 27.2722 35 27.9939 35 28.7465C35 29.499 34.7025 30.2207 34.1729 30.7529L30.211 34.7337C30.0413 34.9042 29.8112 35 29.5712 35H26.8588C26.3593 35 25.9544 34.5934 25.954 34.0915L25.9522 31.3643C25.9521 31.123 26.0474 30.8915 26.2172 30.7209L30.1791 26.74ZM32.176 27.7271C31.9069 27.7271 31.6489 27.8345 31.4586 28.0257L27.762 31.74L27.7629 33.1818H29.1965L32.8934 29.4673C33.0836 29.2761 33.1905 29.0168 33.1905 28.7465C33.1905 28.4761 33.0836 28.2168 32.8934 28.0257C32.7031 27.8345 32.4451 27.7271 32.176 27.7271Z" fill="#6D4922"/>
</g>
<defs>
<filter id="filter0_d_84_293" x="15" y="14" width="21" height="22" filterUnits="userSpaceOnUse" color-interpolation-filters="sRGB">
<feFlood flood-opacity="0" result="BackgroundImageFix"/>
<feColorMatrix in="SourceAlpha" type="matrix" values="0 0 0 0 0 0 0 0 0 0 0 0 0 0 0 0 0 0 127 0" result="hardAlpha"/>
<feOffset/>
<feGaussianBlur stdDeviation="0.5"/>
<feComposite in2="hardAlpha" operator="out"/>
<feColorMatrix type="matrix" values="0 0 0 0 0.427451 0 0 0 0 0.286275 0 0 0 0 0.133333 0 0 0 0.5 0"/>
<feBlend mode="normal" in2="BackgroundImageFix" result="effect1_dropShadow_84_293"/>
<feBlend mode="normal" in="SourceGraphic" in2="effect1_dropShadow_84_293" result="shape"/>
</filter>
</defs>
</svg>
