<svg width="21" height="24" viewBox="0 0 21 24" fill="none" xmlns="http://www.w3.org/2000/svg">
<path d="M15.5865 0.50783C16.0776 0.280458 16.5607 0.434532 16.7314 0.742253L16.7393 0.755885L16.7472 0.76854C18.8346 4.064 20.0594 7.83286 20.08 11.9227C20.1005 16.008 18.916 19.7861 16.866 23.1022C16.6057 23.4788 16.1699 23.5852 15.728 23.398C15.3252 23.1587 15.2158 22.7617 15.4243 22.3605C17.3993 19.2867 18.4644 15.7255 18.4452 11.931C18.426 8.12677 17.2316 4.58185 15.3218 1.54141C15.0829 1.0977 15.2521 0.662726 15.5865 0.50783ZM10.5033 2.94285C10.9856 2.73233 11.4552 2.88576 11.6229 3.18815L11.6337 3.20762L11.6465 3.22611C13.3692 5.79097 14.3257 8.75085 14.3418 11.9547C14.3579 15.1568 13.4323 18.1253 11.7373 20.7083C11.4774 21.0894 11.0386 21.1974 10.5944 21.009C10.1904 20.7688 10.0822 20.3702 10.2937 19.9676C11.7354 17.6328 12.6328 14.8821 12.6182 11.9645C12.6036 9.05973 11.7737 6.31423 10.2103 3.98146C9.99886 3.58318 10.1038 3.18642 10.5033 2.94285ZM5.36048 5.35572C5.63724 5.17337 6.1568 5.23833 6.46448 5.61476C7.73563 7.45669 8.50216 9.68389 8.51377 11.9873C8.52576 14.3694 7.78183 16.5258 6.52796 18.3832C6.23796 18.747 5.79441 18.8496 5.41222 18.6437C4.99779 18.3668 4.92274 17.8944 5.1195 17.6403L5.12919 17.6276L5.13791 17.6148C6.24819 15.9925 6.88927 14.0349 6.87903 11.9965C6.86876 9.95861 6.20821 8.00874 5.08212 6.39914C4.83838 6.04582 4.94859 5.62742 5.36048 5.35572ZM0.339431 7.72109C0.726679 7.46565 1.22662 7.54536 1.45236 7.83068L1.46023 7.8404C1.96012 8.44217 2.36982 9.111 2.61456 9.76718C2.8721 10.5391 3.03653 11.2859 3.04022 12.018C3.0441 12.7884 2.96255 13.5177 2.65221 14.2358C2.31423 15.0178 1.98754 15.6175 1.50308 16.2133L1.49822 16.2182L1.49434 16.2231C1.27147 16.511 0.772485 16.5961 0.382701 16.345C0.0708079 16.144 -0.0227304 15.6953 0.243303 15.3408C0.640327 14.8791 0.928944 14.3394 1.11857 13.8119C1.31596 13.2628 1.40855 12.6391 1.40548 12.0273C1.4024 11.4154 1.30354 10.7925 1.10061 10.2456C0.905691 9.72028 0.611887 9.18387 0.210278 8.72664C-0.0593789 8.37513 0.0295201 7.92561 0.339431 7.72109ZM15.3182 0.0238344C15.2302 0.064568 15.1501 0.112196 15.0787 0.166654C15.1143 0.139519 15.1519 0.113792 15.1916 0.0899078L15.3182 0.0238344Z" fill="url(#paint0_linear_73_1650)"/>
<defs>
<linearGradient id="paint0_linear_73_1650" x1="10.0067" y1="0.0508072" x2="10.1259" y2="23.5189" gradientUnits="userSpaceOnUse">
<stop stop-color="white" stop-opacity="0.73"/>
<stop offset="1" stop-color="white"/>
</linearGradient>
</defs>
</svg>
