<svg width="21" height="22" viewBox="0 0 21 22" fill="none" xmlns="http://www.w3.org/2000/svg">
<path d="M15.5402 0.117367C16.0301 -0.0894509 16.5137 0.0509361 16.6851 0.330796L16.7009 0.35416C18.7958 3.35124 20.03 6.77916 20.0626 10.4988C20.0951 14.2144 18.9235 17.6509 16.8853 20.667C16.6264 21.0096 16.1904 21.1064 15.7483 20.9359C15.3453 20.7182 15.2355 20.357 15.4427 19.992C17.4065 17.1964 18.46 13.9583 18.4298 10.5074C18.3995 7.04739 17.1961 3.82327 15.2794 1.05804C15.0391 0.654439 15.2066 0.258357 15.5402 0.117367ZM10.4697 2.33237C10.9508 2.14087 11.4208 2.28067 11.5892 2.55568L11.6001 2.57321L11.6129 2.58975C13.3412 4.92237 14.3047 7.61447 14.3303 10.5284C14.3557 13.4406 13.4403 16.1403 11.7548 18.4896C11.4963 18.8363 11.0581 18.9348 10.6138 18.7635C10.2096 18.5451 10.1003 18.1828 10.3102 17.8167C11.7436 15.6931 12.6318 13.191 12.6086 10.5373C12.5854 7.89544 11.7483 5.39868 10.1795 3.27709C9.96715 2.91489 10.0713 2.55391 10.4697 2.33237ZM5.33941 4.52714C5.61529 4.36123 6.13392 4.41994 6.44242 4.76225C7.71785 6.43748 8.49069 8.46328 8.50906 10.5584C8.52801 12.7249 7.79153 14.6859 6.5445 16.3752C6.25591 16.7063 5.81316 16.799 5.43069 16.6118C5.01589 16.3599 4.93928 15.9312 5.13508 15.7001L5.14478 15.6883L5.1535 15.6765C6.2578 14.201 6.89245 12.4207 6.87627 10.5669C6.86002 8.71358 6.19441 6.94047 5.06492 5.47667C4.82011 5.15528 4.92862 4.77434 5.33941 4.52714ZM0.330954 6.67837C0.717013 6.44618 1.2166 6.51826 1.44291 6.7777L1.45078 6.78743C1.95175 7.33457 2.36352 7.94227 2.60992 8.53889C2.86946 9.24096 3.03552 9.92087 3.04136 10.5867C3.04748 11.2872 2.96789 11.9502 2.6601 12.6032C2.32482 13.3143 1.99981 13.8595 1.51773 14.4014L1.51385 14.4063L1.509 14.4113C1.28709 14.6728 0.789277 14.7501 0.3993 14.5219C0.0871595 14.339 -0.00774063 13.9309 0.257008 13.6085C0.652183 13.1886 0.93958 12.6984 1.12745 12.2187C1.323 11.7193 1.41243 11.1516 1.4076 10.5953C1.40272 10.0389 1.30315 9.47199 1.09888 8.97463C0.902615 8.49686 0.607248 8.00886 0.204694 7.59303C-0.0657409 7.27331 0.0218875 6.86437 0.330954 6.67837ZM4.77733 4.27877C4.7162 4.33012 4.66087 4.3851 4.61134 4.44263C4.6345 4.41573 4.65833 4.38881 4.6841 4.36319L4.77733 4.27877Z" fill="#141414"/>
</svg>
