<svg width="200" height="13" viewBox="0 0 200 13" fill="none" xmlns="http://www.w3.org/2000/svg">
<g clip-path="url(#clip0_89_873)">
<path d="M100 11.8819C99.4067 11.6062 98.9242 11.1975 98.615 10.7412C98.2068 10.1234 98.1202 9.37248 98.5036 8.73563C98.6892 8.42196 98.9984 8.14631 99.3324 7.9467C99.5304 7.82313 99.753 7.71857 100 7.65204C100.248 7.72808 100.47 7.82313 100.668 7.9467C101.002 8.14631 101.312 8.41245 101.497 8.73563C101.881 9.37248 101.794 10.1234 101.386 10.7412C101.089 11.1975 100.594 11.6062 100 11.8819ZM100 8.37443C99.9386 8.39344 99.8644 8.42196 99.8025 8.45048C99.518 8.57404 99.283 8.74514 99.1098 8.96376C98.7634 9.40099 98.7881 10.0188 99.1716 10.4941C99.3695 10.7507 99.6664 10.9598 100 11.1119C100.334 10.9598 100.631 10.7602 100.829 10.4941C101.225 10.0188 101.25 9.39149 100.891 8.96376C100.718 8.74514 100.483 8.57404 100.198 8.45048C100.136 8.42196 100.062 8.39344 100 8.37443Z" fill="#C49A6C"/>
<path d="M100 1.14052C99.7032 1.2831 99.4434 1.4637 99.2455 1.69182C98.8373 2.14807 98.763 2.76591 99.0723 3.20315C99.2207 3.42177 99.431 3.60237 99.6784 3.73544L99.7279 3.76396C99.7279 3.76396 99.7527 3.78297 99.765 3.78297L99.8887 3.84C99.8887 3.84 99.9753 3.86851 100.012 3.88752C100.05 3.86851 100.087 3.85901 100.136 3.84L100.26 3.78297C100.26 3.78297 100.309 3.75445 100.297 3.76396L100.346 3.73544C100.594 3.60237 100.816 3.42177 100.953 3.20315C101.249 2.76591 101.188 2.14807 100.779 1.69182C100.581 1.4637 100.322 1.2831 100.025 1.14052H100ZM100 4.67646C99.8764 4.63843 99.7527 4.60041 99.6413 4.55289C99.5424 4.51487 99.4434 4.45784 99.3568 4.41031L99.2455 4.34377L99.1713 4.30575L99.1094 4.26773C98.7878 4.03961 98.528 3.74495 98.3796 3.42177C98.0951 2.75641 98.2682 2.02451 98.7259 1.44469C99.0352 1.05498 99.4681 0.722294 100 0.475159C100.532 0.722294 100.965 1.05498 101.274 1.44469C101.744 2.02451 101.917 2.75641 101.621 3.42177C101.472 3.74495 101.212 4.04911 100.891 4.26773L100.829 4.30575L100.755 4.34377L100.643 4.41031C100.557 4.45784 100.458 4.51487 100.359 4.55289C100.247 4.60041 100.124 4.64794 100 4.67646Z" fill="#C49A6C"/>
<path d="M100 6.54864C99.6911 6.49161 99.5056 6.25398 99.5798 6.01635C99.6293 5.87377 99.7654 5.75971 99.9262 5.71219L99.9756 5.69318H100.013H100.05L100.112 5.71219C100.285 5.75971 100.409 5.87377 100.458 6.01635C100.532 6.25398 100.347 6.49161 100.038 6.54864C100.038 6.54864 100.037 6.54864 100.025 6.54864H100Z" fill="#C49A6C"/>
<path d="M86.108 5.94098C86.108 5.94098 86.207 5.92197 86.3925 5.89345C86.5781 5.85543 86.8378 5.7984 87.1718 5.71285C87.5058 5.6178 87.8893 5.47522 88.2975 5.2661C88.7057 5.05699 89.1139 4.78134 89.485 4.42964C89.8685 4.07795 90.1778 3.65021 90.487 3.15594C90.8086 2.65216 91.1426 2.11987 91.6127 1.58758C92.0828 1.06479 92.7384 0.541998 93.6166 0.247336C94.062 0.104757 94.5444 0.00970459 95.0268 0.00970459C95.2619 0.00970459 95.5093 0.00970459 95.7443 0.0477256H95.8556L95.9299 0.0762413L96.0783 0.104757C96.202 0.133273 96.3257 0.152283 96.437 0.190304C97.3524 0.427935 98.0946 0.950724 98.5028 1.57807C98.911 2.19591 98.9976 2.94683 98.6142 3.58368C98.4286 3.89735 98.1194 4.173 97.7854 4.37261C97.439 4.58173 97.0308 4.73381 96.5731 4.77183C95.6577 4.85738 94.7794 4.42014 94.4702 3.84032C94.3094 3.55516 94.2723 3.23198 94.3589 2.94683C94.4578 2.66167 94.6434 2.43354 94.8784 2.26245C95.1011 2.10086 95.3979 1.9868 95.6701 1.93927C95.9422 1.89174 96.202 1.92026 96.4247 1.97729C96.87 2.09135 97.0803 2.36701 97.105 2.54761C97.1298 2.7282 97.0679 2.81375 97.0679 2.81375C97.0679 2.84227 97.0184 2.87078 96.9813 2.86128C96.9318 2.86128 96.9071 2.82326 96.9195 2.79474C96.9195 2.79474 96.9195 2.77573 96.9195 2.73771C96.9195 2.69969 96.8947 2.65216 96.8576 2.60464C96.7834 2.50008 96.5978 2.37651 96.3133 2.36701C96.0288 2.34799 95.6948 2.44305 95.4722 2.68068C95.2248 2.9088 95.1382 3.23198 95.3361 3.52665C95.534 3.82131 95.9917 4.05894 96.5112 4.03993C96.771 4.03993 97.0555 3.96389 97.3277 3.84982C97.6122 3.72626 97.8472 3.55516 98.0204 3.33654C98.3668 2.8993 98.342 2.28146 97.9586 1.8062C97.5751 1.32143 96.8824 1.01726 96.1896 0.941219C96.103 0.931713 96.0288 0.931713 95.9422 0.922208H95.7814L95.7072 0.912703C95.7196 0.912703 95.6701 0.912703 95.6577 0.912703C95.4722 0.912703 95.299 0.912703 95.1258 0.931713C94.7794 0.969734 94.4578 1.03627 94.1486 1.14083C93.5301 1.34994 92.9734 1.71114 92.4786 2.11987C91.9838 2.52859 91.5508 2.99435 91.1797 3.4506C90.8086 3.91636 90.4128 4.39162 89.9551 4.74332C89.5098 5.11402 89.0273 5.38967 88.5696 5.58928C88.112 5.78889 87.679 5.91246 87.3203 6.00751C86.9615 6.09306 86.6647 6.14059 86.4791 6.1691C86.2936 6.19762 86.1822 6.20712 86.1822 6.20712C86.0956 6.21663 86.009 6.1691 85.9843 6.10257C85.9719 6.03603 86.0214 5.96949 86.108 5.95048V5.94098Z" fill="#C49A6C"/>
<path d="M113.904 5.94098C113.904 5.94098 113.805 5.92197 113.619 5.89345C113.434 5.85543 113.174 5.7984 112.84 5.71285C112.506 5.6178 112.123 5.47522 111.714 5.2661C111.306 5.05699 110.898 4.78134 110.527 4.42964C110.143 4.07795 109.834 3.65021 109.525 3.15594C109.203 2.65216 108.869 2.11987 108.399 1.58758C107.929 1.06479 107.286 0.541998 106.395 0.247336C105.95 0.104757 105.467 0.00970459 104.985 0.00970459C104.75 0.00970459 104.503 0.00970459 104.268 0.0477256H104.156L104.082 0.0762413L103.934 0.104757C103.81 0.133273 103.686 0.152283 103.575 0.190304C102.659 0.427935 101.917 0.950724 101.509 1.57807C101.101 2.19591 101.014 2.94683 101.398 3.58368C101.583 3.89735 101.892 4.173 102.226 4.37261C102.573 4.58173 102.981 4.73381 103.439 4.77183C104.366 4.85738 105.245 4.42014 105.542 3.84032C105.702 3.55516 105.74 3.23198 105.653 2.94683C105.554 2.66167 105.368 2.43354 105.133 2.26245C104.911 2.10086 104.614 1.9868 104.342 1.93927C104.07 1.89174 103.81 1.92026 103.587 1.97729C103.142 2.09135 102.932 2.36701 102.907 2.54761C102.882 2.7282 102.944 2.81375 102.944 2.81375C102.944 2.84227 102.981 2.87078 103.031 2.86128C103.08 2.86128 103.105 2.82326 103.092 2.79474C103.092 2.79474 103.092 2.77573 103.092 2.73771C103.092 2.69969 103.117 2.65216 103.154 2.60464C103.228 2.50008 103.414 2.37651 103.699 2.36701C103.983 2.34799 104.317 2.44305 104.54 2.68068C104.787 2.9088 104.874 3.23198 104.676 3.52665C104.478 3.82131 104.02 4.05894 103.501 4.03993C103.241 4.03993 102.956 3.96389 102.684 3.84982C102.4 3.72626 102.165 3.55516 101.991 3.33654C101.645 2.8993 101.67 2.28146 102.053 1.8062C102.437 1.32143 103.129 1.01726 103.822 0.941219C103.909 0.931713 103.983 0.931713 104.07 0.922208H104.23L104.305 0.912703C104.292 0.912703 104.342 0.912703 104.354 0.912703C104.54 0.912703 104.713 0.912703 104.886 0.931713C105.232 0.969734 105.554 1.03627 105.863 1.14083C106.482 1.34994 107.038 1.71114 107.533 2.11987C108.028 2.52859 108.461 2.99435 108.832 3.4506C109.203 3.91636 109.599 4.39162 110.057 4.74332C110.502 5.11402 110.984 5.38967 111.442 5.58928C111.9 5.78889 112.333 5.91246 112.692 6.00751C113.05 6.09306 113.347 6.14059 113.533 6.1691C113.718 6.19762 113.83 6.20712 113.83 6.20712C113.916 6.21663 114.015 6.1691 114.028 6.10257C114.04 6.03603 113.99 5.96949 113.904 5.95048V5.94098Z" fill="#C49A6C"/>
<path d="M86.1702 6.10246C86.1702 6.10246 86.2692 6.11196 86.4671 6.14048C86.6527 6.16899 86.9495 6.21652 87.2959 6.30207C87.6423 6.38761 88.0752 6.51118 88.5329 6.71079C88.9906 6.9104 89.473 7.18605 89.9184 7.54725C90.3637 7.89894 90.7719 8.35519 91.143 8.82095C91.5141 9.2772 91.947 9.73345 92.4295 10.1422C92.9119 10.5509 93.4438 10.9216 94.05 11.1497C94.6437 11.3778 95.3365 11.4824 96.0663 11.4254C96.4126 11.3969 96.7714 11.3113 97.0806 11.1782C97.3899 11.0357 97.6744 10.8456 97.8723 10.6174C98.2805 10.1612 98.3547 9.54334 98.0455 9.1061C97.9094 8.88748 97.6868 8.70688 97.4394 8.57381L97.3899 8.5453C97.3899 8.5453 97.3651 8.52629 97.3528 8.52629L97.2291 8.46925C97.1548 8.44074 97.1177 8.42173 97.0435 8.40272C96.9074 8.35519 96.7837 8.32668 96.6477 8.30767C96.1405 8.23162 95.6457 8.38371 95.3736 8.66886C95.089 8.94451 95.089 9.2867 95.2746 9.54334C95.2993 9.58136 95.3241 9.60988 95.3488 9.63839L95.3736 9.6574C95.3736 9.6574 95.3736 9.66691 95.3859 9.66691L95.4478 9.71444C95.4478 9.71444 95.5096 9.76196 95.5344 9.78097C95.5591 9.79998 95.5962 9.81899 95.6333 9.838C95.7694 9.90454 95.9178 9.94256 96.0663 9.95207C96.3508 9.97108 96.5982 9.87602 96.7219 9.79998C96.7837 9.76196 96.8332 9.72394 96.858 9.69543C96.8827 9.66691 96.8951 9.6574 96.8951 9.6574C96.8951 9.6574 96.9693 9.61938 97.0064 9.63839C97.0311 9.6574 97.0435 9.68592 97.0311 9.70493C97.0311 9.70493 97.0311 9.72394 97.0064 9.76196C96.994 9.79998 96.9569 9.85701 96.8951 9.93306C96.7714 10.0661 96.524 10.2562 96.0786 10.3133C95.8684 10.3418 95.6086 10.3228 95.3612 10.2372C95.2993 10.2182 95.2375 10.1992 95.1756 10.1612C95.1138 10.1327 95.0272 10.0851 95.0025 10.0661L94.9282 10.0186C94.9282 10.0186 94.9282 10.0186 94.8787 9.98058L94.8416 9.95207C94.8416 9.95207 94.7427 9.86652 94.6932 9.81899C94.5077 9.62889 94.3592 9.38175 94.3468 9.0966C94.3345 8.82095 94.4211 8.51678 94.6314 8.26014C94.8416 8.0035 95.1633 7.78488 95.5467 7.65181C95.9426 7.51873 96.4126 7.48071 96.8456 7.55675C97.0559 7.59477 97.2662 7.66131 97.4641 7.73735C97.5631 7.77537 97.662 7.83241 97.7486 7.87993L97.8599 7.94647L97.9342 7.98449L97.996 8.02251C98.3176 8.25063 98.5774 8.5453 98.7258 8.86847C99.0104 9.53384 98.8372 10.2657 98.3795 10.8456C97.9094 11.4254 97.1548 11.9006 96.2518 12.1097C95.3859 12.3284 94.3468 12.3094 93.4933 11.9862C92.6274 11.6725 91.9965 11.1592 91.5388 10.6364C91.0688 10.1137 90.7471 9.57186 90.4379 9.07759C90.1534 8.58332 89.8318 8.17459 89.4483 7.8229C89.0772 7.47121 88.669 7.19556 88.2731 6.99595C87.8773 6.79634 87.4938 6.65376 87.1598 6.55871C86.8258 6.46366 86.5661 6.40662 86.3805 6.37811C86.195 6.34959 86.096 6.33058 86.096 6.33058C86.0094 6.31157 85.9476 6.24504 85.9723 6.1785C85.997 6.11196 86.0836 6.06444 86.1702 6.08345V6.10246Z" fill="#C49A6C"/>
<path d="M113.829 6.10249C113.829 6.10249 113.73 6.11199 113.533 6.14051C113.347 6.16903 113.05 6.21655 112.704 6.3021C112.357 6.38764 111.924 6.51121 111.467 6.71082C111.009 6.91043 110.527 7.18608 110.081 7.54728C109.636 7.89897 109.228 8.35522 108.857 8.82098C108.486 9.27723 108.053 9.73348 107.57 10.1422C107.088 10.5509 106.556 10.9216 105.95 11.1498C105.356 11.3779 104.663 11.4824 103.921 11.4254C103.575 11.3969 103.228 11.3113 102.907 11.1783C102.597 11.0357 102.313 10.8456 102.115 10.6175C101.707 10.1612 101.633 9.54337 101.942 9.10613C102.078 8.88751 102.301 8.70692 102.548 8.57384L102.597 8.54533C102.597 8.54533 102.622 8.52632 102.634 8.52632L102.758 8.46928C102.832 8.44077 102.87 8.42176 102.944 8.40275C103.08 8.35522 103.204 8.32671 103.34 8.3077C103.847 8.23165 104.342 8.38374 104.614 8.66889C104.898 8.94454 104.898 9.28673 104.713 9.54337C104.688 9.58139 104.663 9.60991 104.638 9.63843L104.614 9.65743C104.614 9.65743 104.614 9.66694 104.601 9.66694L104.539 9.71447C104.539 9.71447 104.478 9.76199 104.453 9.781C104.428 9.80001 104.391 9.81902 104.354 9.83803C104.218 9.90457 104.069 9.94259 103.921 9.9521C103.624 9.97111 103.389 9.87606 103.265 9.80001C103.204 9.76199 103.154 9.72397 103.129 9.69546C103.105 9.66694 103.092 9.65743 103.092 9.65743C103.092 9.65743 103.018 9.61941 102.981 9.63843C102.956 9.65744 102.944 9.68595 102.956 9.70496C102.956 9.70496 102.956 9.72397 102.981 9.76199C102.993 9.80001 103.03 9.85704 103.092 9.93309C103.216 10.0662 103.476 10.2563 103.909 10.3133C104.119 10.3418 104.379 10.3228 104.626 10.2373C104.688 10.2182 104.75 10.1992 104.812 10.1612C104.873 10.1327 104.96 10.0852 104.985 10.0662L105.059 10.0186C105.059 10.0186 105.059 10.0186 105.109 9.98061L105.146 9.9521C105.146 9.9521 105.245 9.86655 105.294 9.81902C105.48 9.62892 105.628 9.38178 105.64 9.09663C105.653 8.82098 105.566 8.51681 105.356 8.26017C105.146 8.00353 104.824 7.78491 104.441 7.65184C104.045 7.51876 103.575 7.48074 103.142 7.55678C102.931 7.59481 102.721 7.66134 102.523 7.73738C102.424 7.7754 102.325 7.83244 102.239 7.87996L102.127 7.9465L102.053 7.98452L101.991 8.02254C101.67 8.25066 101.41 8.54533 101.261 8.8685C100.977 9.53387 101.15 10.2658 101.608 10.8456C102.078 11.4254 102.832 11.9007 103.735 12.1098C104.601 12.3284 105.64 12.3094 106.494 11.9862C107.36 11.6725 107.991 11.1593 108.448 10.6365C108.918 10.1137 109.24 9.57189 109.549 9.07762C109.846 8.58335 110.156 8.17462 110.539 7.82293C110.91 7.47124 111.318 7.19559 111.714 6.99598C112.11 6.79637 112.493 6.65379 112.827 6.55874C113.161 6.46369 113.421 6.40666 113.607 6.37814C113.792 6.34962 113.891 6.33061 113.891 6.33061C113.978 6.3116 114.04 6.24507 114.015 6.17853C113.99 6.11199 113.904 6.06447 113.817 6.08348L113.829 6.10249Z" fill="#C49A6C"/>
<path d="M97.1548 6.60564L96.9816 6.65316C96.9816 6.65316 96.9074 6.67218 96.8456 6.70069C96.7466 6.73871 96.6353 6.78624 96.5239 6.83376C96.3136 6.92882 96.1034 7.03337 95.8931 7.13793C95.4725 7.35655 95.0519 7.58468 94.6313 7.8128C94.421 7.92686 94.2107 8.04093 93.9881 8.15499C93.753 8.26905 93.5427 8.3641 93.283 8.45916C92.8005 8.63976 92.2315 8.76332 91.6501 8.68728C91.3656 8.64926 91.0935 8.55421 90.8584 8.43064C90.6234 8.30707 90.4378 8.16449 90.2523 8.01241C90.0667 7.86983 89.9059 7.71775 89.7327 7.57517C89.5596 7.43259 89.3988 7.31853 89.2008 7.19496C88.8297 6.96684 88.3844 6.77673 87.9391 6.64366C87.4814 6.51059 86.9989 6.40603 86.5289 6.36801C86.3928 6.3585 86.2938 6.26345 86.3062 6.15889C86.3062 6.06384 86.4176 5.9973 86.5289 5.9878C87.0113 5.94978 87.4938 5.84522 87.9391 5.71215C88.3968 5.57907 88.8297 5.38897 89.2132 5.16084C89.4111 5.04678 89.5843 4.92321 89.7451 4.78064C89.9183 4.63806 90.0791 4.49548 90.2647 4.3434C90.4502 4.20082 90.6358 4.04873 90.8708 3.93467C91.0935 3.8111 91.3656 3.71605 91.6625 3.67803C92.2439 3.60199 92.8129 3.73506 93.2953 3.90616C93.5304 3.9917 93.7778 4.10577 93.9881 4.21032C94.2107 4.32439 94.421 4.43845 94.6313 4.55251C95.0519 4.78064 95.4725 5.00876 95.8931 5.22738C96.1034 5.33194 96.3136 5.446 96.5239 5.53155C96.7342 5.6266 96.9569 5.72165 97.1177 5.75017C97.427 5.8072 97.6125 6.04483 97.5383 6.28246C97.4888 6.42504 97.3651 6.5391 97.1919 6.58663L97.1301 6.60564H97.1548ZM95.9054 6.18741L95.3488 5.76918C94.9777 5.49353 94.6189 5.22738 94.2355 4.97074C94.0499 4.84717 93.852 4.7236 93.6664 4.60954C93.4562 4.48597 93.2706 4.40043 93.0603 4.30538C92.6397 4.12478 92.1944 4.01071 91.7614 4.05824C91.3285 4.10577 90.945 4.32439 90.5987 4.59053C90.4255 4.7236 90.2647 4.87569 90.0791 5.01827C89.9059 5.16085 89.6956 5.31293 89.4977 5.42699C88.6565 5.92126 87.6669 6.23494 86.6155 6.37751V5.9973C87.135 6.07335 87.6422 6.18741 88.1246 6.33949C88.372 6.41553 88.6071 6.51059 88.8297 6.61514C89.0648 6.7197 89.2751 6.82426 89.4977 6.95733C89.6956 7.07139 89.9059 7.22348 90.0791 7.36606C90.2523 7.50863 90.4255 7.66072 90.5987 7.79379C90.9326 8.06944 91.3285 8.28806 91.7491 8.32608C92.182 8.37361 92.6397 8.25004 93.0479 8.07895C93.2459 7.9934 93.4685 7.88884 93.6541 7.77478C93.852 7.66072 94.0375 7.53715 94.2231 7.41358C94.6066 7.15694 94.9653 6.8908 95.3364 6.61514L95.8931 6.19691L95.9054 6.18741Z" fill="#C49A6C"/>
<path d="M102.858 6.60564L103.031 6.65316C103.031 6.65316 103.105 6.67218 103.167 6.70069C103.266 6.73871 103.377 6.78624 103.489 6.83376C103.699 6.92882 103.909 7.03337 104.12 7.13793C104.54 7.35655 104.961 7.58468 105.381 7.8128C105.592 7.92686 105.802 8.04093 106.025 8.15499C106.26 8.26905 106.47 8.3641 106.73 8.45916C107.212 8.63976 107.781 8.76332 108.363 8.68728C108.647 8.64926 108.919 8.55421 109.154 8.43064C109.389 8.30707 109.575 8.16449 109.76 8.01241C109.946 7.86983 110.107 7.71775 110.28 7.57517C110.453 7.43259 110.614 7.31853 110.812 7.19496C111.183 6.96684 111.628 6.77673 112.074 6.64366C112.531 6.51059 113.001 6.40603 113.484 6.36801C113.62 6.3585 113.719 6.26345 113.706 6.15889C113.706 6.06384 113.595 5.9973 113.484 5.9878C113.001 5.94978 112.519 5.84522 112.074 5.71215C111.616 5.57907 111.183 5.38897 110.799 5.16084C110.602 5.04678 110.428 4.92321 110.268 4.78064C110.094 4.63806 109.934 4.49548 109.748 4.3434C109.562 4.20082 109.377 4.04873 109.142 3.93467C108.919 3.8111 108.647 3.71605 108.35 3.67803C107.769 3.60199 107.2 3.73506 106.717 3.90616C106.482 3.9917 106.235 4.10577 106.025 4.21032C105.802 4.32439 105.592 4.43845 105.381 4.55251C104.961 4.78064 104.54 5.00876 104.12 5.22738C103.909 5.33194 103.699 5.446 103.489 5.53155C103.278 5.6266 103.056 5.72165 102.895 5.75017C102.586 5.8072 102.4 6.04483 102.474 6.28246C102.524 6.42504 102.648 6.5391 102.821 6.58663L102.883 6.60564H102.858ZM104.107 6.18741L104.664 5.76918C105.035 5.49353 105.394 5.22738 105.777 4.97074C105.963 4.84717 106.161 4.7236 106.346 4.60954C106.556 4.48597 106.742 4.40043 106.952 4.30538C107.373 4.12478 107.818 4.01071 108.251 4.05824C108.684 4.10577 109.068 4.32439 109.414 4.59053C109.587 4.7236 109.748 4.87569 109.934 5.01827C110.107 5.16085 110.317 5.31293 110.515 5.42699C111.356 5.92126 112.346 6.23494 113.397 6.37751V5.9973C112.865 6.07335 112.37 6.18741 111.888 6.33949C111.641 6.41553 111.406 6.51059 111.183 6.61514C110.96 6.7197 110.738 6.82426 110.515 6.95733C110.317 7.07139 110.107 7.22348 109.934 7.36606C109.76 7.50863 109.587 7.66072 109.414 7.79379C109.08 8.06944 108.684 8.28806 108.251 8.32608C107.818 8.37361 107.373 8.25004 106.952 8.07895C106.754 7.9934 106.532 7.88884 106.346 7.77478C106.148 7.66072 105.963 7.53715 105.777 7.41358C105.394 7.15694 105.035 6.8908 104.664 6.61514L104.107 6.19691V6.18741Z" fill="#C49A6C"/>
<path d="M94.9284 6.33027C94.7057 6.49186 94.4583 6.72949 94.1986 6.9291C93.9388 7.13822 93.6419 7.32832 93.3203 7.48991C92.9863 7.6515 92.6152 7.77506 92.207 7.81309C92.0091 7.8321 91.7988 7.8321 91.6009 7.81309C91.4029 7.79408 91.205 7.73704 91.0195 7.68001C90.8463 7.61348 90.6731 7.53743 90.5123 7.45189C90.3515 7.36634 90.203 7.26178 90.0793 7.17624C89.9433 7.08118 89.8196 7.00514 89.6711 6.9291C89.535 6.85306 89.3866 6.77702 89.2258 6.71999C88.6197 6.46334 87.9269 6.30176 87.2218 6.25423C87.1724 6.25423 87.1353 6.21621 87.1353 6.17819C87.1353 6.14967 87.1724 6.12116 87.2218 6.11165C87.9269 6.06413 88.6073 5.90254 89.2134 5.6459C89.5103 5.51282 89.7948 5.36074 90.0546 5.18965L90.1535 5.12311L90.2649 5.05657C90.3267 5.00905 90.401 4.97103 90.4875 4.9235C90.6484 4.82845 90.8092 4.76191 90.9947 4.69537C91.3534 4.57181 91.774 4.50527 92.1822 4.5528C92.5905 4.59082 92.9616 4.71439 93.2956 4.86647C93.6295 5.02806 93.9141 5.21816 94.1862 5.41777C94.3223 5.52233 94.446 5.61738 94.5697 5.72194L94.7552 5.86452C94.7552 5.86452 94.8789 5.95957 94.9037 5.96907C95.0521 6.02611 95.1016 6.15918 95.0397 6.26374C95.0274 6.28275 95.0026 6.30176 94.9779 6.32077L94.9532 6.33978L94.9284 6.33027ZM94.2728 6.16868L94.0996 6.0166C93.9759 5.91204 93.8646 5.81699 93.7409 5.72194C93.5058 5.53183 93.2461 5.35123 92.9739 5.20866C92.7018 5.06608 92.4049 4.96152 92.0957 4.9235C91.7864 4.88548 91.4772 4.9235 91.1803 5.00905C91.0318 5.05657 90.8834 5.1136 90.7597 5.18965C90.6978 5.21816 90.6236 5.26569 90.5494 5.30371L90.3391 5.42728C90.0422 5.60788 89.7206 5.75045 89.3742 5.86452C88.6939 6.10215 87.964 6.21621 87.2342 6.22571V6.09264C87.964 6.09264 88.7063 6.21621 89.3866 6.45384C89.5598 6.51087 89.7206 6.57741 89.8938 6.65345C90.0546 6.71999 90.2278 6.81504 90.3638 6.90058C90.5247 6.99564 90.636 7.07168 90.7844 7.14772C90.9205 7.22376 91.0689 7.28079 91.2174 7.32832C91.3658 7.36634 91.5143 7.41387 91.6751 7.42337C91.8359 7.43288 91.9843 7.44238 92.1451 7.42337C92.4544 7.38535 92.7513 7.28079 93.0234 7.13822C93.2956 6.99564 93.5553 6.81504 93.778 6.61543C93.8893 6.52038 94.013 6.41582 94.1243 6.31126C94.1738 6.26374 94.2357 6.21621 94.2852 6.16868H94.2728Z" fill="#C49A6C"/>
<path d="M105.072 6.33027C105.282 6.49186 105.542 6.72949 105.801 6.9291C106.061 7.13822 106.358 7.32832 106.68 7.48991C107.014 7.6515 107.385 7.77506 107.793 7.81309C107.991 7.8321 108.201 7.8321 108.399 7.81309C108.597 7.79408 108.795 7.73704 108.981 7.68001C109.154 7.61348 109.327 7.53743 109.488 7.45189C109.649 7.36634 109.797 7.26178 109.921 7.17624C110.057 7.08118 110.18 7.00514 110.317 6.9291C110.453 6.85306 110.601 6.77702 110.762 6.71999C111.368 6.46334 112.061 6.30176 112.766 6.25423C112.815 6.25423 112.852 6.21621 112.852 6.17819C112.852 6.14967 112.815 6.12116 112.766 6.11165C112.061 6.06413 111.38 5.90254 110.774 5.6459C110.465 5.51282 110.193 5.36074 109.933 5.18965L109.834 5.12311L109.723 5.05657C109.661 5.00905 109.587 4.97103 109.5 4.9235C109.339 4.82845 109.178 4.76191 108.993 4.69537C108.634 4.57181 108.214 4.50527 107.805 4.5528C107.397 4.59082 107.026 4.71439 106.692 4.86647C106.358 5.02806 106.074 5.21816 105.801 5.41777C105.665 5.52233 105.542 5.61738 105.418 5.72194L105.232 5.86452C105.232 5.86452 105.109 5.95957 105.084 5.96907C104.936 6.02611 104.886 6.15918 104.948 6.26374C104.96 6.28275 104.985 6.30176 105.01 6.32077L105.035 6.33978L105.072 6.33027ZM105.727 6.16868L105.9 6.0166C106.024 5.91204 106.135 5.81699 106.259 5.72194C106.494 5.53183 106.754 5.35123 107.026 5.20866C107.298 5.06608 107.595 4.96152 107.904 4.9235C108.214 4.88548 108.523 4.9235 108.82 5.00905C108.968 5.05657 109.117 5.1136 109.24 5.18965C109.302 5.21816 109.376 5.26569 109.451 5.30371L109.661 5.42728C109.958 5.60788 110.279 5.75045 110.626 5.86452C111.306 6.10215 112.036 6.21621 112.766 6.22571V6.09264C112.036 6.09264 111.294 6.21621 110.613 6.45384C110.44 6.51087 110.279 6.57741 110.106 6.65345C109.945 6.71999 109.772 6.81504 109.636 6.90058C109.475 6.99564 109.364 7.07168 109.216 7.14772C109.08 7.22376 108.931 7.28079 108.783 7.32832C108.634 7.36634 108.486 7.41387 108.325 7.42337C108.164 7.43288 108.016 7.44238 107.855 7.42337C107.546 7.38535 107.249 7.28079 106.977 7.13822C106.704 6.99564 106.445 6.81504 106.222 6.61543C106.111 6.52038 105.987 6.41582 105.876 6.31126C105.826 6.26374 105.764 6.21621 105.715 6.16868H105.727Z" fill="#C49A6C"/>
<path d="M8.89456 5.66464L86.1459 5.91178C86.3191 5.91178 86.4552 6.02584 86.4552 6.15891C86.4552 6.29199 86.3191 6.39654 86.1459 6.39654L8.89456 6.64368C8.32553 6.64368 7.85547 6.43456 7.85547 6.15891C7.85547 5.89277 8.31316 5.67415 8.88219 5.67415H8.89456V5.66464Z" fill="#C49A6C"/>
<path d="M191.106 5.66464L113.867 5.91178C113.694 5.91178 113.558 6.02584 113.558 6.15891C113.558 6.29199 113.694 6.39654 113.867 6.39654L191.106 6.64368C191.675 6.64368 192.145 6.43456 192.145 6.15891C192.145 5.89277 191.687 5.67415 191.118 5.67415H191.106V5.66464Z" fill="#C49A6C"/>
<path d="M5.86344 6.14943C5.86344 6.6437 4.5522 7.04292 2.93172 7.04292C1.31123 7.04292 0 6.6437 0 6.14943C0 5.65516 1.31123 5.26544 2.93172 5.26544C4.5522 5.26544 5.86344 5.66466 5.86344 6.14943Z" fill="#C49A6C"/>
<path d="M194.137 6.14943C194.137 6.6437 195.448 7.04292 197.069 7.04292C198.689 7.04292 200.001 6.6437 200.001 6.14943C200.001 5.65516 198.689 5.26544 197.069 5.26544C195.448 5.26544 194.137 5.66466 194.137 6.14943Z" fill="#C49A6C"/>
<path d="M95.8066 2.75668C95.8066 2.48102 96.1035 2.2529 96.4623 2.2529C96.821 2.2529 97.1179 2.48102 97.1179 2.75668C97.1179 3.03233 96.821 3.26045 96.4623 3.26045C96.1035 3.26045 95.8066 3.03233 95.8066 2.75668Z" fill="#C49A6C"/>
<path d="M104.206 2.75668C104.206 2.48102 103.909 2.2529 103.55 2.2529C103.191 2.2529 102.895 2.48102 102.895 2.75668C102.895 3.03233 103.179 3.26045 103.55 3.26045C103.921 3.26045 104.206 3.03233 104.206 2.75668Z" fill="#C49A6C"/>
<path d="M95.8071 9.61895C95.8071 9.3433 96.104 9.11517 96.4628 9.11517C96.8215 9.11517 97.1184 9.3433 97.1184 9.61895C97.1184 9.8946 96.8215 10.1227 96.4628 10.1227C96.104 10.1227 95.8071 9.8946 95.8071 9.61895Z" fill="#C49A6C"/>
<path d="M104.206 9.61895C104.206 9.3433 103.909 9.11517 103.55 9.11517C103.191 9.11517 102.895 9.3433 102.895 9.61895C102.895 9.8946 103.179 10.1227 103.55 10.1227C103.921 10.1227 104.206 9.8946 104.206 9.61895Z" fill="#C49A6C"/>
</g>
<defs>
<clipPath id="clip0_89_873">
<rect width="200" height="12.2807" fill="white"/>
</clipPath>
</defs>
</svg>
