<svg width="72" height="20" viewBox="0 0 72 20" fill="none" xmlns="http://www.w3.org/2000/svg">
<path fill-rule="evenodd" clip-rule="evenodd" d="M52.1065 4.20803H56.0846V10.9154L59.526 4.20803H63.1767L55.8161 17.7684C55.8161 17.7684 55.1328 18.9058 54.2853 19.5074C53.5891 20.0022 52.7328 19.9798 52.4712 20C51.0173 19.9866 49.2635 19.9824 49.2635 19.9824L50.1095 16.7499L51.4784 16.7474C51.4784 16.7474 52.105 16.6796 52.347 16.3517C52.5776 16.0392 52.6955 15.7267 52.6955 15.2684C52.6955 14.5813 52.1065 4.20803 52.1065 4.20803ZM10.7706 5.54759C10.217 6.9089 8.50022 6.75409 8.50022 6.75409L6.50137 6.74418L7.23105 3.86131C7.23105 3.86131 9.01922 3.86835 9.89628 3.86835C10.8351 3.86835 11.1281 4.66895 10.7706 5.54759ZM15.3135 3.58303C15.6538 0.722556 13.2818 0.000319857 10.7173 0.000319857H3.9781L0 15.387H4.28221L5.61919 10.1628L8.0213 10.1836C8.0213 10.1836 9.01259 10.1225 9.03218 11.1105C9.05298 12.1645 8.29618 14.0996 8.345 15.387H12.7442L12.7345 14.9773C12.7345 14.9773 12.3689 14.8743 12.4096 14.3293C12.4265 14.1025 12.6625 13.3847 12.9714 12.4168C13.1577 11.9901 13.4386 10.9778 13.4126 10.1535C13.3804 9.12455 12.7719 8.64701 11.8945 8.31308C14.6294 7.63242 15.3135 3.58303 15.3135 3.58303ZM16.2852 4.20803H20.191L18.5825 10.7757C18.5825 10.7757 18.1813 12.2403 19.4722 12.3532C20.4921 12.4427 21.251 11.1512 21.4997 10.2764C21.8264 9.12743 23.0958 4.20771 23.0958 4.20771H27.1198L24.0579 15.3867H20.5445L20.9761 13.7897C20.9761 13.7897 19.1837 16.1093 16.5206 15.831C14.1535 15.5844 13.9494 13.7622 14.3596 11.4889C14.561 10.373 16.2852 4.20803 16.2852 4.20803ZM36.3451 5.58278C35.7878 7.2326 34.2522 7.03813 34.2522 7.03813L32.1557 7.03877L32.9834 3.76983C32.9834 3.76983 34.3104 3.77719 35.1869 3.77719C36.2598 3.77719 36.6492 4.68206 36.3451 5.58278ZM40.7482 4.05514C41.0888 1.19434 39.0342 0 36.4693 0H29.7304L25.7526 15.3867H30.0348L31.2389 10.6429L34.6507 10.665C34.6507 10.665 39.9338 10.9023 40.7482 4.05514ZM44.3483 13.1093C43.6793 13.2894 42.8679 13.3873 42.707 12.7421C42.2651 10.9743 46.1651 10.4568 46.1651 10.4568C46.1917 12.0676 44.8619 12.9705 44.3483 13.1093ZM50.2481 9.87366C50.7626 8.01401 51.413 6.2532 50.8895 5.27732C50.0878 3.78358 48.6387 3.65244 46.5187 3.65244C44.1766 3.65244 41.285 4.12455 40.3425 7.42995H44.2417C44.2417 7.42995 44.597 6.18507 46.0606 6.26343C47.356 6.33284 47.2851 7.27866 46.8077 7.80162C45.9704 8.71801 43.6582 8.20976 41.0972 9.1527C38.8597 9.97665 38.0766 13.0991 38.5628 14.3453C39.0339 15.5537 39.9112 15.7075 41.0948 15.831C42.9957 16.0293 44.4532 14.9044 45.1317 14.2442C45.1317 14.9773 45.1498 15.3867 45.1498 15.3867H49.2529L49.243 14.977C49.243 14.977 48.8774 14.874 48.9181 14.3289C48.9476 13.9298 49.6568 12.0093 50.2481 9.87366Z" fill="url(#paint0_linear_67_799)"/>
<path fill-rule="evenodd" clip-rule="evenodd" d="M67.8864 1.6665L63.1768 19.9998L71.9921 10.833L67.8864 1.6665Z" fill="url(#paint1_linear_67_799)"/>
<path fill-rule="evenodd" clip-rule="evenodd" d="M64.9477 1.6665L60.2383 19.9998L69.0536 10.833L64.9477 1.6665Z" fill="url(#paint2_linear_67_799)"/>
<defs>
<linearGradient id="paint0_linear_67_799" x1="31.6758" y1="-6.37394e-09" x2="31.5009" y2="20" gradientUnits="userSpaceOnUse">
<stop stop-color="#FDFDFD"/>
<stop offset="1" stop-color="#6C6C6C"/>
</linearGradient>
<linearGradient id="paint1_linear_67_799" x1="67.5403" y1="1.6665" x2="67.6285" y2="19.9998" gradientUnits="userSpaceOnUse">
<stop stop-color="#1D8546" stop-opacity="0.6"/>
<stop offset="0.783654" stop-color="#1D8546"/>
<stop offset="1" stop-color="#008E38"/>
</linearGradient>
<linearGradient id="paint2_linear_67_799" x1="64.646" y1="1.6665" x2="64.646" y2="19.9998" gradientUnits="userSpaceOnUse">
<stop stop-color="#EF7612" stop-opacity="0.4"/>
<stop offset="0.639423" stop-color="#EF7612"/>
<stop offset="1" stop-color="#FA7100"/>
</linearGradient>
</defs>
</svg>
