<svg width="45" height="45" viewBox="0 0 45 45" fill="none" xmlns="http://www.w3.org/2000/svg">
<path fill-rule="evenodd" clip-rule="evenodd" d="M31.2929 19.5248H33.682V23.5493L35.7487 19.5248H37.9412L33.5207 27.661C33.5207 27.661 33.1104 28.3435 32.6014 28.7045C32.1833 29.0013 31.669 28.9879 31.5119 29C30.6387 28.9919 29.5855 28.9894 29.5855 28.9894L30.0936 27.05L30.9157 27.0484C30.9157 27.0484 31.292 27.0077 31.4373 26.811C31.5758 26.6235 31.6466 26.436 31.6466 26.161C31.6466 25.7488 31.2929 19.5246 31.2929 19.5246V19.5248ZM6.46836 20.3286C6.13586 21.1453 5.10486 21.0525 5.10486 21.0525L3.90444 21.0465L4.34265 19.3168C4.34265 19.3168 5.41655 19.321 5.94327 19.321C6.5071 19.321 6.68321 19.8012 6.46854 20.3284L6.46836 20.3286ZM9.19664 19.1498C9.40099 17.4335 7.97649 17.0002 6.43633 17.0002H2.38907L0 26.2322H2.57171L3.37464 23.0977L4.81724 23.1102C4.81724 23.1102 5.41257 23.0735 5.42433 23.6663C5.43682 24.2987 4.98232 25.4598 5.01164 26.2322H7.65358L7.64779 25.9864C7.64779 25.9864 7.42823 25.9246 7.45266 25.5976C7.4628 25.4615 7.60453 25.0308 7.79006 24.4501C7.90192 24.1941 8.07061 23.5867 8.05505 23.0921C8.03568 22.4747 7.67023 22.1882 7.14333 21.9878C8.78576 21.5795 9.19628 19.15 9.19646 19.15L9.19664 19.1498ZM9.7802 19.5248H12.1258L11.1598 23.4654C11.1598 23.4654 10.9189 24.3442 11.6941 24.4119C12.3067 24.4656 12.7624 23.6907 12.9117 23.1658C13.108 22.4765 13.8703 19.5246 13.8703 19.5246H16.2869L14.4481 26.232H12.3381L12.5973 25.2738C12.5973 25.2738 11.5209 26.6656 9.92156 26.4986C8.49995 26.3506 8.37741 25.2573 8.62376 23.8934C8.74467 23.2238 9.7802 19.5248 9.7802 19.5248ZM21.8273 20.3497C21.4926 21.3396 20.5704 21.2229 20.5704 21.2229L19.3113 21.2233L19.8084 19.2619C19.8084 19.2619 20.6053 19.2663 21.1317 19.2663C21.7761 19.2663 22.0099 19.809 21.8273 20.3495V20.3497ZM24.4716 19.4331C24.6761 17.7166 23.4422 17 21.9019 17H17.8548L15.4659 26.232H18.0376L18.7607 23.3857L20.8097 23.399C20.8097 23.399 23.9827 23.5414 24.4718 19.4331H24.4716ZM26.6337 24.8656C26.2318 24.9736 25.7446 25.0324 25.6479 24.6453C25.3826 23.5846 27.7248 23.2741 27.7248 23.2741C27.7407 24.2405 26.9419 24.7823 26.6335 24.8656H26.6337ZM30.1768 22.9242C30.4858 21.8084 30.8764 20.7519 30.562 20.1664C30.0805 19.2702 29.2103 19.1915 27.9371 19.1915C26.5305 19.1915 24.7939 19.4747 24.2279 21.458H26.5696C26.5696 21.458 26.783 20.711 27.662 20.7581C28.4399 20.7997 28.3974 21.3672 28.1107 21.681C27.6078 22.2308 26.2192 21.9259 24.6812 22.4916C23.3374 22.986 22.8672 24.8595 23.1591 25.6072C23.442 26.3322 23.9689 26.4245 24.6797 26.4986C25.8213 26.6176 26.6967 25.9426 27.1041 25.5465C27.1041 25.9864 27.115 26.232 27.115 26.232H29.5791L29.5732 25.9862C29.5732 25.9862 29.3536 25.9244 29.3781 25.5974C29.3958 25.3579 29.8215 24.2056 30.1766 22.9242H30.1768Z" fill="#C6C0B7"/>
<path fill-rule="evenodd" clip-rule="evenodd" d="M40.7696 18L37.9412 29L43.2353 23.4999L40.7696 18Z" fill="#1D8546"/>
<path fill-rule="evenodd" clip-rule="evenodd" d="M39.0048 18L36.1765 29L41.4706 23.4999L39.0048 18Z" fill="#EC6B00"/>
<path fill-rule="evenodd" clip-rule="evenodd" d="M44.1177 16.0904C43.6752 16.0904 43.3148 16.4986 43.3148 17.0003C43.3148 17.5018 43.675 17.9099 44.1177 17.9099C44.5603 17.9099 44.9204 17.5018 44.9204 17.0003C44.9204 16.4984 44.5603 16.0904 44.1177 16.0904ZM44.1053 17.3735V16.6643H44.2302L44.3781 17.1663C44.3919 17.2131 44.4016 17.2481 44.4082 17.2713C44.4152 17.2455 44.4262 17.2076 44.4415 17.1575L44.5913 16.6643H44.7025V17.3735H44.6228V16.7798L44.4409 17.3735H44.3663L44.1853 16.7698V17.3735H44.1053ZM43.6895 17.3735V16.7481H43.4835V16.6645H43.9794V16.7481H43.7725V17.3735H43.6895ZM44.1177 18C43.631 18 43.2354 17.5515 43.2354 17.0001C43.2354 16.4487 43.6311 16 44.1177 16C44.6041 16 45.0001 16.4487 45.0001 17.0001C45.0001 17.5513 44.6041 18 44.1177 18Z" fill="#C5C5C5"/>
</svg>
