<svg width="21" height="22" viewBox="0 0 21 22" fill="none" xmlns="http://www.w3.org/2000/svg">
<path d="M11 0.999995C5.47896 0.85843 0.85843 5.47896 0.999995 11C1.13807 16.3848 5.62013 20.7683 11 20.5C16.394 20.231 20.5591 15.3717 20 10M16 5C16 5 18.0474 3.14788 20 0.999995M20 0.999995L20 4M20 0.999995L17 1" stroke="#F5F4ED" stroke-width="1.5" stroke-linecap="round" stroke-linejoin="round"/>
<g clip-path="url(#clip0_24_57)">
<path d="M8 7.50002C8 7.50002 8.87132 7.50002 9.75 7.50002M12 15.5L8.5 12C8.5 12 9.25 12 9.75 12C10.25 12 12.5 12.0309 12.5 9.75002C12.5 7.46913 10.25 7.50002 9.75 7.50002M14 7.50002C14 7.50002 11.2145 7.50002 9.75 7.50002M8 9.75002H14" stroke="#F5F4ED" stroke-width="1.2" stroke-linecap="round"/>
</g>
<defs>
<clipPath id="clip0_24_57">
<rect width="6" height="8" fill="white" transform="translate(8 7)"/>
</clipPath>
</defs>
</svg>
