<svg width="31" height="25" viewBox="0 0 31 25" fill="none" xmlns="http://www.w3.org/2000/svg">
<path fill-rule="evenodd" clip-rule="evenodd" d="M6 11H25V17.5C25 18.3284 24.3284 19 23.5 19H7.5C6.67157 19 6 18.3284 6 17.5V11ZM8.5 17.5C8.22386 17.5 8 17.2761 8 17V15.5C8 15.2239 8.22386 15 8.5 15H11.5C11.7761 15 12 15.2239 12 15.5V17C12 17.2761 11.7761 17.5 11.5 17.5H8.5Z" fill="#0E0E0E"/>
<path d="M6 9.5H25V8C25 7.17157 24.3284 6.5 23.5 6.5H7.5C6.67157 6.5 6 7.17157 6 8V9.5Z" fill="#0E0E0E"/>
<path fill-rule="evenodd" clip-rule="evenodd" d="M6 11H25V17.5C25 18.3284 24.3284 19 23.5 19H7.5C6.67157 19 6 18.3284 6 17.5V11ZM8.5 17.5C8.22386 17.5 8 17.2761 8 17V15.5C8 15.2239 8.22386 15 8.5 15H11.5C11.7761 15 12 15.2239 12 15.5V17C12 17.2761 11.7761 17.5 11.5 17.5H8.5Z" stroke="black" stroke-width="0.2"/>
<path d="M6 9.5H25V8C25 7.17157 24.3284 6.5 23.5 6.5H7.5C6.67157 6.5 6 7.17157 6 8V9.5Z" stroke="black" stroke-width="0.2"/>
<path d="M22.5 24H27C28.6569 24 30 22.6569 30 21V18" stroke="black" stroke-width="1.8" stroke-linecap="round"/>
<path d="M8.5 1H4C2.34315 1 1 2.34315 1 4V7" stroke="black" stroke-width="1.8" stroke-linecap="round"/>
<path d="M22 1H26.5C28.1569 1 29.5 2.34315 29.5 4V7" stroke="black" stroke-width="1.8" stroke-linecap="round"/>
<path d="M8.5 24H4C2.34315 24 1 22.6569 1 21V18" stroke="black" stroke-width="1.8" stroke-linecap="round"/>
</svg>
