<svg width="50" height="50" viewBox="0 0 50 50" fill="none" xmlns="http://www.w3.org/2000/svg">
<rect width="50" height="50" rx="8" fill="#FFF7EE"/>
<g filter="url(#filter0_d_84_303)">
<path d="M33.0265 25.9748C33.068 25.6637 33.0888 25.3422 33.0888 25C33.0888 24.6681 33.068 24.3363 33.0162 24.0252L35.1213 22.3867C35.308 22.2415 35.3599 21.9615 35.2458 21.7541L33.2547 18.3111C33.1302 18.083 32.871 18.0104 32.6428 18.083L30.1643 19.0785C29.6458 18.6844 29.0962 18.3526 28.4843 18.1037L28.111 15.4696C28.0695 15.2207 27.8621 15.0444 27.6132 15.0444H23.631C23.3821 15.0444 23.185 15.2207 23.1436 15.4696L22.7702 18.1037C22.1584 18.3526 21.5984 18.6948 21.0902 19.0785L18.6117 18.083C18.3836 18 18.1243 18.083 17.9999 18.3111L16.0191 21.7541C15.8947 21.9718 15.9362 22.2415 16.1436 22.3867L18.2488 24.0252C18.1969 24.3363 18.1554 24.6785 18.1554 25C18.1554 25.3215 18.1762 25.6637 18.228 25.9748L16.1228 27.6133C15.9362 27.7585 15.8843 28.0385 15.9984 28.2459L17.9895 31.6889C18.1139 31.917 18.3732 31.9896 18.6013 31.917L21.0799 30.9215C21.5984 31.3155 22.148 31.6474 22.7599 31.8963L23.1332 34.5304C23.185 34.7792 23.3821 34.9555 23.631 34.9555H27.6132C27.8621 34.9555 28.0695 34.7792 28.1006 34.5304L28.4739 31.8963C29.0858 31.6474 29.6458 31.3155 30.1539 30.9215L32.6325 31.917C32.8606 32 33.1199 31.917 33.2443 31.6889L35.2354 28.2459C35.3599 28.0178 35.308 27.7585 35.111 27.6133L33.0265 25.9748ZM25.6221 28.7333C23.5688 28.7333 21.8888 27.0533 21.8888 25C21.8888 22.9467 23.5688 21.2667 25.6221 21.2667C27.6754 21.2667 29.3554 22.9467 29.3554 25C29.3554 27.0533 27.6754 28.7333 25.6221 28.7333Z" fill="#6D4922"/>
</g>
<defs>
<filter id="filter0_d_84_303" x="14.9382" y="14.0444" width="21.3677" height="21.9111" filterUnits="userSpaceOnUse" color-interpolation-filters="sRGB">
<feFlood flood-opacity="0" result="BackgroundImageFix"/>
<feColorMatrix in="SourceAlpha" type="matrix" values="0 0 0 0 0 0 0 0 0 0 0 0 0 0 0 0 0 0 127 0" result="hardAlpha"/>
<feOffset/>
<feGaussianBlur stdDeviation="0.5"/>
<feComposite in2="hardAlpha" operator="out"/>
<feColorMatrix type="matrix" values="0 0 0 0 0.427451 0 0 0 0 0.286275 0 0 0 0 0.133333 0 0 0 0.5 0"/>
<feBlend mode="normal" in2="BackgroundImageFix" result="effect1_dropShadow_84_303"/>
<feBlend mode="normal" in="SourceGraphic" in2="effect1_dropShadow_84_303" result="shape"/>
</filter>
</defs>
</svg>
