<svg width="26" height="24" viewBox="0 0 26 24" fill="none" xmlns="http://www.w3.org/2000/svg">
<g filter="url(#filter0_d_29_41)">
<path d="M2.5 21.5H23.5" stroke="white" stroke-width="2.5" stroke-linecap="round"/>
</g>
<path d="M4.69521 15.1952L3.48432 13.9843C2.36764 12.8676 2.30481 11.0718 3.36567 9.90199C6.25555 6.71529 8.58581 4.48227 11.9137 1.70755C13.0908 0.726083 14.8216 0.821559 15.9053 1.90527L17 3M4.69521 15.1952L11 21.5H13L23.324 10.7068C23.6997 10.3139 23.6928 9.69284 23.3084 9.30843L17 3M4.69521 15.1952C9.18959 10.2645 11.8574 7.58925 17 3M12 17.5L17 12.5" stroke="white" stroke-width="2" stroke-linecap="round" stroke-linejoin="round"/>
<defs>
<filter id="filter0_d_29_41" x="0.25" y="18.75" width="25.5" height="4.5" filterUnits="userSpaceOnUse" color-interpolation-filters="sRGB">
<feFlood flood-opacity="0" result="BackgroundImageFix"/>
<feColorMatrix in="SourceAlpha" type="matrix" values="0 0 0 0 0 0 0 0 0 0 0 0 0 0 0 0 0 0 127 0" result="hardAlpha"/>
<feOffset dy="-0.5"/>
<feGaussianBlur stdDeviation="0.5"/>
<feComposite in2="hardAlpha" operator="out"/>
<feColorMatrix type="matrix" values="0 0 0 0 0 0 0 0 0 0 0 0 0 0 0 0 0 0 0.25 0"/>
<feBlend mode="normal" in2="BackgroundImageFix" result="effect1_dropShadow_29_41"/>
<feBlend mode="normal" in="SourceGraphic" in2="effect1_dropShadow_29_41" result="shape"/>
</filter>
</defs>
</svg>
