<svg width="63" height="20" viewBox="0 0 63 20" fill="none" xmlns="http://www.w3.org/2000/svg">
<path d="M58.0075 0.272705H54.0979C52.916 0.272705 52.0068 0.636384 51.4613 1.81834L44.0059 18.8203H49.2792C49.2792 18.8203 50.1884 16.5473 50.3702 16.0018C50.9158 16.0018 56.0982 16.0018 56.8255 16.0018C57.0074 16.6382 57.462 18.7294 57.462 18.7294H62.1898L58.0075 0.272705ZM51.8249 12.1832C52.2795 11.0921 53.8252 7.00076 53.8252 7.00076C53.8252 7.09168 54.2798 5.90973 54.4616 5.27329L54.8253 6.90984C54.8253 6.90984 55.8254 11.3649 56.0072 12.2741H51.8249V12.1832Z" fill="url(#paint0_linear_67_767)"/>
<path d="M44.3693 12.7288C44.3693 16.5474 40.9144 19.0931 35.5501 19.0931C33.2771 19.0931 31.095 18.6385 29.9131 18.093L30.6404 13.9107L31.2769 14.1835C32.9134 14.9108 34.0045 15.1836 36.0047 15.1836C37.4594 15.1836 39.0051 14.6381 39.0051 13.3652C39.0051 12.5469 38.3686 12.0014 36.3684 11.0922C34.4591 10.183 31.9133 8.72829 31.9133 6.09162C31.9133 2.45483 35.4592 0 40.4598 0C42.3691 0 44.0056 0.363679 45.0058 0.818277L44.2784 4.81874L43.9147 4.45506C43.0055 4.09138 41.8236 3.72771 40.0961 3.72771C38.1868 3.81863 37.2776 4.6369 37.2776 5.36426C37.2776 6.18254 38.3686 6.81897 40.0961 7.63725C43.0055 9.00105 44.3693 10.5467 44.3693 12.7288Z" fill="url(#paint1_linear_67_767)"/>
<path d="M0 0.454743L0.0909197 0.0910645H7.91001C9.00105 0.0910645 9.81932 0.454743 10.0921 1.6367L11.8196 9.81947C10.0921 5.45532 6.09162 1.90946 0 0.454743Z" fill="url(#paint2_linear_67_767)"/>
<path d="M22.8203 0.272804L14.9102 18.7295H9.54598L5 3.27315C8.27311 5.36431 11.0007 8.63741 12.0008 10.9104L12.5463 12.8197L17.456 0.181885H22.8203V0.272804Z" fill="url(#paint3_linear_67_767)"/>
<path d="M24.9117 0.181885H29.9123L26.7301 18.7295H21.7295L24.9117 0.181885Z" fill="url(#paint4_linear_67_767)"/>
<defs>
<linearGradient id="paint0_linear_67_767" x1="53.0978" y1="0.272705" x2="53.0978" y2="18.8203" gradientUnits="userSpaceOnUse">
<stop stop-color="#5C5C5C" stop-opacity="0.5"/>
<stop offset="1"/>
</linearGradient>
<linearGradient id="paint1_linear_67_767" x1="37.4594" y1="0" x2="37.4594" y2="19.0931" gradientUnits="userSpaceOnUse">
<stop stop-color="#5C5C5C" stop-opacity="0.5"/>
<stop offset="1"/>
</linearGradient>
<linearGradient id="paint2_linear_67_767" x1="5.90978" y1="0.0910645" x2="5.90978" y2="9.81947" gradientUnits="userSpaceOnUse">
<stop stop-color="#5C5C5C" stop-opacity="0.5"/>
<stop offset="1"/>
</linearGradient>
<linearGradient id="paint3_linear_67_767" x1="13.9101" y1="0.181885" x2="13.9101" y2="18.7295" gradientUnits="userSpaceOnUse">
<stop stop-color="#5C5C5C" stop-opacity="0.5"/>
<stop offset="1"/>
</linearGradient>
<linearGradient id="paint4_linear_67_767" x1="25.8209" y1="0.181885" x2="25.8209" y2="18.7295" gradientUnits="userSpaceOnUse">
<stop stop-color="#5C5C5C" stop-opacity="0.5"/>
<stop offset="1"/>
</linearGradient>
</defs>
</svg>
