<svg width="45" height="45" viewBox="0 0 45 45" fill="none" xmlns="http://www.w3.org/2000/svg">
<path d="M22.2811 15.4618L19.2747 29.5172H15.6383L18.645 15.4618H22.2811ZM37.5792 24.5375L39.493 19.2594L40.5944 24.5375H37.5792ZM41.6377 29.5172H45L42.0625 15.4618H38.961C38.262 15.4618 37.6728 15.8671 37.412 16.492L31.9559 29.5172H35.7747L36.5328 27.4181H41.1973L41.6377 29.5172ZM32.1453 24.9286C32.1611 21.2191 27.0173 21.0136 27.0518 19.3562C27.0628 18.8526 27.5434 18.3161 28.5935 18.1789C29.1142 18.1119 30.551 18.0575 32.1797 18.808L32.8167 15.8263C31.942 15.5098 30.8162 15.2051 29.4155 15.2051C25.8208 15.2051 23.2921 17.1145 23.2718 19.8509C23.2488 21.8745 25.0782 23.0027 26.4537 23.6767C27.8718 24.3655 28.347 24.8072 28.34 25.4227C28.3302 26.3657 27.2092 26.7833 26.1654 26.7991C24.3362 26.8276 23.2759 26.3047 22.4309 25.9108L21.7709 28.9921C22.6219 29.3816 24.1899 29.7205 25.8135 29.7378C29.6352 29.7378 32.1339 27.8509 32.1453 24.9286ZM17.0852 15.4618L11.1935 29.5172H7.35031L4.45078 18.3C4.27501 17.6102 4.12169 17.3567 3.58712 17.0652C2.7127 16.5904 1.26926 16.1462 0 15.8699L0.0859881 15.4618H6.27326C7.06137 15.4618 7.77045 15.9862 7.95096 16.8942L9.4826 25.0282L13.2651 15.4618H17.0852Z" fill="#B7B7B7"/>
</svg>
