<svg width="18" height="18" viewBox="0 0 18 18" fill="none" xmlns="http://www.w3.org/2000/svg">
<g clip-path="url(#clip0_89_864)">
<path d="M13.7447 1.42786H16.2748L10.7473 7.74548L17.25 16.3423H12.1584L8.17053 11.1284L3.60746 16.3423H1.07582L6.98807 9.58493L0.75 1.42786H5.97083L9.57555 6.1936L13.7447 1.42786ZM12.8567 14.8279H14.2587L5.20905 2.86271H3.7046L12.8567 14.8279Z" fill="#885B2B"/>
<path d="M13.7447 1.42786H16.2748L10.7473 7.74548L17.25 16.3423H12.1584L8.17053 11.1284L3.60746 16.3423H1.07582L6.98807 9.58493L0.75 1.42786H5.97083L9.57555 6.1936L13.7447 1.42786ZM12.8567 14.8279H14.2587L5.20905 2.86271H3.7046L12.8567 14.8279Z" fill="black" fill-opacity="0.2"/>
</g>
<defs>
<clipPath id="clip0_89_864">
<rect width="18" height="18" fill="white"/>
</clipPath>
</defs>
</svg>
