<svg width="18" height="18" viewBox="0 0 18 18" fill="none" xmlns="http://www.w3.org/2000/svg">
<path d="M14 0C15.8856 0 16.8283 0.000151038 17.4141 0.585938C17.9998 1.17172 18 2.11438 18 4V14C18 15.8856 17.9998 16.8283 17.4141 17.4141C16.8283 17.9998 15.8856 18 14 18H4C2.11438 18 1.17172 17.9998 0.585938 17.4141C0.000151038 16.8283 0 15.8856 0 14V4C0 2.11438 0.000151038 1.17172 0.585938 0.585938C1.17172 0.000151038 2.11438 0 4 0H14ZM7.05762 6.23926C6.79372 6.12616 6.50012 6.31937 6.5 6.60645V11.3936C6.50012 11.6806 6.79372 11.8738 7.05762 11.7607L12.6426 9.36719C12.9651 9.22845 12.9651 8.77155 12.6426 8.63281L7.05762 6.23926Z" fill="#885B2B"/>
<path d="M14 0C15.8856 0 16.8283 0.000151038 17.4141 0.585938C17.9998 1.17172 18 2.11438 18 4V14C18 15.8856 17.9998 16.8283 17.4141 17.4141C16.8283 17.9998 15.8856 18 14 18H4C2.11438 18 1.17172 17.9998 0.585938 17.4141C0.000151038 16.8283 0 15.8856 0 14V4C0 2.11438 0.000151038 1.17172 0.585938 0.585938C1.17172 0.000151038 2.11438 0 4 0H14ZM7.05762 6.23926C6.79372 6.12616 6.50012 6.31937 6.5 6.60645V11.3936C6.50012 11.6806 6.79372 11.8738 7.05762 11.7607L12.6426 9.36719C12.9651 9.22845 12.9651 8.77155 12.6426 8.63281L7.05762 6.23926Z" fill="black" fill-opacity="0.2"/>
</svg>
